ISO-10303-21;
HEADER;
FILE_DESCRIPTION (( 'STEP AP214' ),
    '1' );
FILE_NAME ('fiberglass_support_ring.STEP',
    '2026-07-23T22:12:56',
    ( '' ),
    ( '' ),
    'SwSTEP 2.0',
    'SolidWorks 2025',
    '' );
FILE_SCHEMA (( 'AUTOMOTIVE_DESIGN' ));
ENDSEC;

DATA;
#1 = DIRECTION ( 'NONE',  ( 0.000000000000000000, 0.000000000000000000, 1.000000000000000000 ) ) ;
#2 = AXIS2_PLACEMENT_3D ( 'NONE', #181, #192, #45 ) ;
#3 =( LENGTH_UNIT ( ) NAMED_UNIT ( * ) SI_UNIT ( .MILLI., .METRE. ) );
#4 = AXIS2_PLACEMENT_3D ( 'NONE', #104, #159, #14 ) ;
#5 = FILL_AREA_STYLE ('',( #22 ) ) ;
#6 = AXIS2_PLACEMENT_3D ( 'NONE', #156, #84, #56 ) ;
#7 = ORIENTED_EDGE ( 'NONE', *, *, #138, .T. ) ;
#8 = AXIS2_PLACEMENT_3D ( 'NONE', #128, #193, #46 ) ;
#9 = ORIENTED_EDGE ( 'NONE', *, *, #21, .T. ) ;
#10 = DIRECTION ( 'NONE',  ( 0.000000000000000000, 0.000000000000000000, 1.000000000000000000 ) ) ;
#11 = DIRECTION ( 'NONE',  ( 1.000000000000000000, 0.000000000000000000, 0.000000000000000000 ) ) ;
#12 = FACE_OUTER_BOUND ( 'NONE', #74, .T. ) ;
#13 = CARTESIAN_POINT ( 'NONE',  ( -44.44999999999999574, 0.000000000000000000, 9.999999999999998224 ) ) ;
#14 = DIRECTION ( 'NONE',  ( -1.000000000000000000, 0.000000000000000000, 0.000000000000000000 ) ) ;
#15 = ORIENTED_EDGE ( 'NONE', *, *, #189, .F. ) ;
#16 = LINE ( 'NONE', #185, #187 ) ;
#17 = EDGE_CURVE ( 'NONE', #60, #42, #147, .T. ) ;
#18 = DIRECTION ( 'NONE',  ( -0.000000000000000000, -0.000000000000000000, -1.000000000000000000 ) ) ;
#19 = ADVANCED_FACE ( 'NONE', ( #80 ), #119, .T. ) ;
#20 = VERTEX_POINT ( 'NONE', #107 ) ;
#21 = EDGE_CURVE ( 'NONE', #177, #55, #186, .T. ) ;
#22 = FILL_AREA_STYLE_COLOUR ( '', #153 ) ;
#23 = CARTESIAN_POINT ( 'NONE',  ( 44.44999999999999574, 5.443555022209984909E-15, 9.999999999999998224 ) ) ;
#24 = CARTESIAN_POINT ( 'NONE',  ( 0.000000000000000000, 0.000000000000000000, 0.000000000000000000 ) ) ;
#25 = EDGE_CURVE ( 'NONE', #115, #76, #184, .T. ) ;
#26 = ORIENTED_EDGE ( 'NONE', *, *, #17, .T. ) ;
#27 = DIRECTION ( 'NONE',  ( 1.000000000000000000, 0.000000000000000000, 0.000000000000000000 ) ) ;
#28 = VERTEX_POINT ( 'NONE', #64 ) ;
#29 = FACE_OUTER_BOUND ( 'NONE', #157, .T. ) ;
#30 = EDGE_LOOP ( 'NONE', ( #92, #62, #72, #15 ) ) ;
#31 = ADVANCED_FACE ( 'NONE', ( #134 ), #132, .T. ) ;
#32 =( NAMED_UNIT ( * ) SI_UNIT ( $, .STERADIAN. ) SOLID_ANGLE_UNIT ( ) );
#33 = UNCERTAINTY_MEASURE_WITH_UNIT (LENGTH_MEASURE( 1.000000000000000082E-05 ), #3, 'distance_accuracy_value', 'NONE');
#34 =( NAMED_UNIT ( * ) PLANE_ANGLE_UNIT ( ) SI_UNIT ( $, .RADIAN. ) );
#35 = CARTESIAN_POINT ( 'NONE',  ( -41.44999999999999574, 0.000000000000000000, 9.999999999999998224 ) ) ;
#36 = MECHANICAL_DESIGN_GEOMETRIC_PRESENTATION_REPRESENTATION (  '', ( #161 ), #90 ) ;
#37 = CIRCLE ( 'NONE', #8, 44.44999999999999574 ) ;
#38 = ORIENTED_EDGE ( 'NONE', *, *, #138, .F. ) ;
#39 = PRODUCT_DEFINITION_CONTEXT ( 'detailed design', #87, 'design' ) ;
#40 = PRESENTATION_STYLE_ASSIGNMENT (( #172 ) ) ;
#41 = CIRCLE ( 'NONE', #173, 41.44999999999999574 ) ;
#42 = VERTEX_POINT ( 'NONE', #143 ) ;
#43 = EDGE_CURVE ( 'NONE', #115, #60, #114, .T. ) ;
#44 = CARTESIAN_POINT ( 'NONE',  ( 0.000000000000000000, 0.000000000000000000, 0.000000000000000000 ) ) ;
#45 = DIRECTION ( 'NONE',  ( -1.000000000000000000, 0.000000000000000000, 0.000000000000000000 ) ) ;
#46 = DIRECTION ( 'NONE',  ( 1.000000000000000000, 0.000000000000000000, 0.000000000000000000 ) ) ;
#47 = APPLICATION_PROTOCOL_DEFINITION ( 'draft international standard', 'automotive_design', 1998, #87 ) ;
#48 = AXIS2_PLACEMENT_3D ( 'NONE', #198, #168, #89 ) ;
#49 = ORIENTED_EDGE ( 'NONE', *, *, #58, .T. ) ;
#50 = CYLINDRICAL_SURFACE ( 'NONE', #4, 41.44999999999999574 ) ;
#51 = ORIENTED_EDGE ( 'NONE', *, *, #196, .F. ) ;
#52 = MANIFOLD_SOLID_BREP ( 'Boss-Extrude1', #126 ) ;
#53 = DIRECTION ( 'NONE',  ( 1.000000000000000000, 0.000000000000000000, 0.000000000000000000 ) ) ;
#54 = LINE ( 'NONE', #35, #170 ) ;
#55 = VERTEX_POINT ( 'NONE', #61 ) ;
#56 = DIRECTION ( 'NONE',  ( 1.000000000000000000, 0.000000000000000000, 0.000000000000000000 ) ) ;
#57 = AXIS2_PLACEMENT_3D ( 'NONE', #106, #163, #152 ) ;
#58 = EDGE_CURVE ( 'NONE', #55, #177, #41, .T. ) ;
#59 = AXIS2_PLACEMENT_3D ( 'NONE', #96, #109, #148 ) ;
#60 = VERTEX_POINT ( 'NONE', #120 ) ;
#61 = CARTESIAN_POINT ( 'NONE',  ( -41.44999999999999574, 0.000000000000000000, 0.000000000000000000 ) ) ;
#62 = ORIENTED_EDGE ( 'NONE', *, *, #67, .T. ) ;
#63 = FACE_BOUND ( 'NONE', #191, .T. ) ;
#64 = CARTESIAN_POINT ( 'NONE',  ( 41.44999999999999574, 5.076160982465777886E-15, 9.999999999999998224 ) ) ;
#65 =( GEOMETRIC_REPRESENTATION_CONTEXT ( 3 ) GLOBAL_UNCERTAINTY_ASSIGNED_CONTEXT ( ( #33 ) ) GLOBAL_UNIT_ASSIGNED_CONTEXT ( ( #3, #34, #66 ) ) REPRESENTATION_CONTEXT ( 'NONE', 'WORKASPACE' ) );
#66 =( NAMED_UNIT ( * ) SI_UNIT ( $, .STERADIAN. ) SOLID_ANGLE_UNIT ( ) );
#67 = EDGE_CURVE ( 'NONE', #28, #177, #16, .T. ) ;
#68 = AXIS2_PLACEMENT_3D ( 'NONE', #199, #1, #169 ) ;
#69 = AXIS2_PLACEMENT_3D ( 'NONE', #44, #122, #179 ) ;
#70 = PRESENTATION_LAYER_ASSIGNMENT (  '', '', ( #161 ) ) ;
#71 = ORIENTED_EDGE ( 'NONE', *, *, #43, .T. ) ;
#72 = ORIENTED_EDGE ( 'NONE', *, *, #58, .F. ) ;
#73 = ADVANCED_BREP_SHAPE_REPRESENTATION ( 'fiberglass_support_ring', ( #52, #139 ), #65 ) ;
#74 = EDGE_LOOP ( 'NONE', ( #71, #95 ) ) ;
#75 = DIRECTION ( 'NONE',  ( 1.000000000000000000, 0.000000000000000000, 0.000000000000000000 ) ) ;
#76 = VERTEX_POINT ( 'NONE', #166 ) ;
#77 = ORIENTED_EDGE ( 'NONE', *, *, #21, .F. ) ;
#78 = ADVANCED_FACE ( 'NONE', ( #144, #146 ), #93, .F. ) ;
#79 = CARTESIAN_POINT ( 'NONE',  ( 0.000000000000000000, 0.000000000000000000, 9.999999999999998224 ) ) ;
#80 = FACE_OUTER_BOUND ( 'NONE', #195, .T. ) ;
#81 = CARTESIAN_POINT ( 'NONE',  ( -44.44999999999999574, 0.000000000000000000, 9.999999999999998224 ) ) ;
#82 = PRODUCT_RELATED_PRODUCT_CATEGORY ( 'part', '', ( #136 ) ) ;
#83 = DIRECTION ( 'NONE',  ( 0.000000000000000000, 0.000000000000000000, 1.000000000000000000 ) ) ;
#84 = DIRECTION ( 'NONE',  ( 0.000000000000000000, 0.000000000000000000, 1.000000000000000000 ) ) ;
#85 = EDGE_CURVE ( 'NONE', #20, #28, #131, .T. ) ;
#86 = PRODUCT_DEFINITION_FORMATION_WITH_SPECIFIED_SOURCE ( 'ANY', '', #136, .NOT_KNOWN. ) ;
#87 = APPLICATION_CONTEXT ( 'automotive_design' ) ;
#88 = ORIENTED_EDGE ( 'NONE', *, *, #17, .F. ) ;
#89 = DIRECTION ( 'NONE',  ( -1.000000000000000000, 0.000000000000000000, 0.000000000000000000 ) ) ;
#90 =( GEOMETRIC_REPRESENTATION_CONTEXT ( 3 ) GLOBAL_UNCERTAINTY_ASSIGNED_CONTEXT ( ( #110 ) ) GLOBAL_UNIT_ASSIGNED_CONTEXT ( ( #116, #197, #32 ) ) REPRESENTATION_CONTEXT ( 'NONE', 'WORKASPACE' ) );
#91 = DIRECTION ( 'NONE',  ( 0.000000000000000000, 0.000000000000000000, 1.000000000000000000 ) ) ;
#92 = ORIENTED_EDGE ( 'NONE', *, *, #85, .T. ) ;
#93 = PLANE ( 'NONE',  #69 ) ;
#94 = CIRCLE ( 'NONE', #178, 44.44999999999999574 ) ;
#95 = ORIENTED_EDGE ( 'NONE', *, *, #196, .T. ) ;
#96 = CARTESIAN_POINT ( 'NONE',  ( 0.000000000000000000, 0.000000000000000000, 9.999999999999998224 ) ) ;
#97 = CARTESIAN_POINT ( 'NONE',  ( 0.000000000000000000, 0.000000000000000000, 0.000000000000000000 ) ) ;
#98 = PRODUCT_DEFINITION_SHAPE ( 'NONE', 'NONE',  #174 ) ;
#99 = AXIS2_PLACEMENT_3D ( 'NONE', #97, #105, #165 ) ;
#100 = ORIENTED_EDGE ( 'NONE', *, *, #151, .T. ) ;
#101 = CARTESIAN_POINT ( 'NONE',  ( 0.000000000000000000, 0.000000000000000000, 0.000000000000000000 ) ) ;
#102 = EDGE_LOOP ( 'NONE', ( #158, #38 ) ) ;
#103 = EDGE_LOOP ( 'NONE', ( #88, #162, #188, #100 ) ) ;
#104 = CARTESIAN_POINT ( 'NONE',  ( 0.000000000000000000, 0.000000000000000000, 9.999999999999998224 ) ) ;
#105 = DIRECTION ( 'NONE',  ( 0.000000000000000000, 0.000000000000000000, 1.000000000000000000 ) ) ;
#106 = CARTESIAN_POINT ( 'NONE',  ( 0.000000000000000000, 0.000000000000000000, 9.999999999999998224 ) ) ;
#107 = CARTESIAN_POINT ( 'NONE',  ( -41.44999999999999574, 0.000000000000000000, 9.999999999999998224 ) ) ;
#108 = DIRECTION ( 'NONE',  ( -0.000000000000000000, -0.000000000000000000, -1.000000000000000000 ) ) ;
#109 = DIRECTION ( 'NONE',  ( -0.000000000000000000, -0.000000000000000000, -1.000000000000000000 ) ) ;
#110 = UNCERTAINTY_MEASURE_WITH_UNIT (LENGTH_MEASURE( 1.000000000000000082E-05 ), #116, 'distance_accuracy_value', 'NONE');
#111 = CARTESIAN_POINT ( 'NONE',  ( 0.000000000000000000, 0.000000000000000000, 9.999999999999998224 ) ) ;
#112 = CARTESIAN_POINT ( 'NONE',  ( 41.44999999999999574, 5.076160982465777886E-15, 0.000000000000000000 ) ) ;
#113 = APPLICATION_CONTEXT ( 'automotive_design' ) ;
#114 = CIRCLE ( 'NONE', #6, 44.44999999999999574 ) ;
#115 = VERTEX_POINT ( 'NONE', #81 ) ;
#116 =( LENGTH_UNIT ( ) NAMED_UNIT ( * ) SI_UNIT ( .MILLI., .METRE. ) );
#117 = ORIENTED_EDGE ( 'NONE', *, *, #167, .F. ) ;
#118 = ADVANCED_FACE ( 'NONE', ( #29 ), #182, .F. ) ;
#119 = CYLINDRICAL_SURFACE ( 'NONE', #2, 44.44999999999999574 ) ;
#120 = CARTESIAN_POINT ( 'NONE',  ( 44.44999999999999574, 5.443555022209984909E-15, 9.999999999999998224 ) ) ;
#121 = DIRECTION ( 'NONE',  ( -0.000000000000000000, -0.000000000000000000, -1.000000000000000000 ) ) ;
#122 = DIRECTION ( 'NONE',  ( 0.000000000000000000, 0.000000000000000000, 1.000000000000000000 ) ) ;
#123 = ADVANCED_FACE ( 'NONE', ( #12, #63 ), #133, .T. ) ;
#124 = AXIS2_PLACEMENT_3D ( 'NONE', #79, #130, #53 ) ;
#125 = ADVANCED_FACE ( 'NONE', ( #135 ), #50, .F. ) ;
#126 = CLOSED_SHELL ( 'NONE', ( #125, #19, #123, #78, #31, #118 ) ) ;
#127 = ORIENTED_EDGE ( 'NONE', *, *, #25, .F. ) ;
#128 = CARTESIAN_POINT ( 'NONE',  ( 0.000000000000000000, 0.000000000000000000, 0.000000000000000000 ) ) ;
#129 = ORIENTED_EDGE ( 'NONE', *, *, #189, .T. ) ;
#130 = DIRECTION ( 'NONE',  ( 0.000000000000000000, 0.000000000000000000, 1.000000000000000000 ) ) ;
#131 = CIRCLE ( 'NONE', #124, 41.44999999999999574 ) ;
#132 = CYLINDRICAL_SURFACE ( 'NONE', #48, 44.44999999999999574 ) ;
#133 = PLANE ( 'NONE',  #68 ) ;
#134 = FACE_OUTER_BOUND ( 'NONE', #103, .T. ) ;
#135 = FACE_OUTER_BOUND ( 'NONE', #30, .T. ) ;
#136 = PRODUCT ( 'fiberglass_support_ring', 'fiberglass_support_ring', '', ( #180 ) ) ;
#137 = DIRECTION ( 'NONE',  ( 1.000000000000000000, 0.000000000000000000, 0.000000000000000000 ) ) ;
#138 = EDGE_CURVE ( 'NONE', #42, #76, #94, .T. ) ;
#139 = AXIS2_PLACEMENT_3D ( 'NONE', #194, #142, #11 ) ;
#140 = SURFACE_STYLE_FILL_AREA ( #5 ) ;
#141 = CIRCLE ( 'NONE', #57, 41.44999999999999574 ) ;
#142 = DIRECTION ( 'NONE',  ( 0.000000000000000000, 0.000000000000000000, 1.000000000000000000 ) ) ;
#143 = CARTESIAN_POINT ( 'NONE',  ( 44.44999999999999574, 5.443555022209984909E-15, 0.000000000000000000 ) ) ;
#144 = FACE_OUTER_BOUND ( 'NONE', #102, .T. ) ;
#145 = ORIENTED_EDGE ( 'NONE', *, *, #67, .F. ) ;
#146 = FACE_BOUND ( 'NONE', #175, .T. ) ;
#147 = LINE ( 'NONE', #23, #154 ) ;
#148 = DIRECTION ( 'NONE',  ( -1.000000000000000000, 0.000000000000000000, 0.000000000000000000 ) ) ;
#149 = ORIENTED_EDGE ( 'NONE', *, *, #167, .T. ) ;
#150 = DIRECTION ( 'NONE',  ( -0.000000000000000000, -0.000000000000000000, -1.000000000000000000 ) ) ;
#151 = EDGE_CURVE ( 'NONE', #76, #42, #37, .T. ) ;
#152 = DIRECTION ( 'NONE',  ( 1.000000000000000000, 0.000000000000000000, 0.000000000000000000 ) ) ;
#153 = COLOUR_RGB ( '',0.7921568627450980005, 0.8196078431372548767, 0.9333333333333333481 ) ;
#154 = VECTOR ( 'NONE', #121, 1000.000000000000000 ) ;
#155 = ORIENTED_EDGE ( 'NONE', *, *, #85, .F. ) ;
#156 = CARTESIAN_POINT ( 'NONE',  ( 0.000000000000000000, 0.000000000000000000, 9.999999999999998224 ) ) ;
#157 = EDGE_LOOP ( 'NONE', ( #145, #149, #129, #77 ) ) ;
#158 = ORIENTED_EDGE ( 'NONE', *, *, #151, .F. ) ;
#159 = DIRECTION ( 'NONE',  ( -0.000000000000000000, -0.000000000000000000, -1.000000000000000000 ) ) ;
#160 = APPLICATION_PROTOCOL_DEFINITION ( 'draft international standard', 'automotive_design', 1998, #113 ) ;
#161 = STYLED_ITEM ( 'NONE', ( #40 ), #52 ) ;
#162 = ORIENTED_EDGE ( 'NONE', *, *, #43, .F. ) ;
#163 = DIRECTION ( 'NONE',  ( 0.000000000000000000, 0.000000000000000000, 1.000000000000000000 ) ) ;
#164 = CIRCLE ( 'NONE', #183, 44.44999999999999574 ) ;
#165 = DIRECTION ( 'NONE',  ( 1.000000000000000000, 0.000000000000000000, 0.000000000000000000 ) ) ;
#166 = CARTESIAN_POINT ( 'NONE',  ( -44.44999999999999574, 0.000000000000000000, 0.000000000000000000 ) ) ;
#167 = EDGE_CURVE ( 'NONE', #28, #20, #141, .T. ) ;
#168 = DIRECTION ( 'NONE',  ( -0.000000000000000000, -0.000000000000000000, -1.000000000000000000 ) ) ;
#169 = DIRECTION ( 'NONE',  ( 1.000000000000000000, 0.000000000000000000, -0.000000000000000000 ) ) ;
#170 = VECTOR ( 'NONE', #18, 1000.000000000000000 ) ;
#171 = VECTOR ( 'NONE', #108, 1000.000000000000000 ) ;
#172 = SURFACE_STYLE_USAGE ( .BOTH. , #190 ) ;
#173 = AXIS2_PLACEMENT_3D ( 'NONE', #101, #91, #27 ) ;
#174 = PRODUCT_DEFINITION ( 'UNKNOWN', '', #86, #39 ) ;
#175 = EDGE_LOOP ( 'NONE', ( #49, #9 ) ) ;
#176 = SHAPE_DEFINITION_REPRESENTATION ( #98, #73 ) ;
#177 = VERTEX_POINT ( 'NONE', #112 ) ;
#178 = AXIS2_PLACEMENT_3D ( 'NONE', #24, #10, #75 ) ;
#179 = DIRECTION ( 'NONE',  ( 1.000000000000000000, 0.000000000000000000, -0.000000000000000000 ) ) ;
#180 = PRODUCT_CONTEXT ( 'NONE', #113, 'mechanical' ) ;
#181 = CARTESIAN_POINT ( 'NONE',  ( 0.000000000000000000, 0.000000000000000000, 9.999999999999998224 ) ) ;
#182 = CYLINDRICAL_SURFACE ( 'NONE', #59, 41.44999999999999574 ) ;
#183 = AXIS2_PLACEMENT_3D ( 'NONE', #111, #83, #137 ) ;
#184 = LINE ( 'NONE', #13, #171 ) ;
#185 = CARTESIAN_POINT ( 'NONE',  ( 41.44999999999999574, 5.076160982465777886E-15, 9.999999999999998224 ) ) ;
#186 = CIRCLE ( 'NONE', #99, 41.44999999999999574 ) ;
#187 = VECTOR ( 'NONE', #150, 1000.000000000000000 ) ;
#188 = ORIENTED_EDGE ( 'NONE', *, *, #25, .T. ) ;
#189 = EDGE_CURVE ( 'NONE', #20, #55, #54, .T. ) ;
#190 = SURFACE_SIDE_STYLE ('',( #140 ) ) ;
#191 = EDGE_LOOP ( 'NONE', ( #155, #117 ) ) ;
#192 = DIRECTION ( 'NONE',  ( -0.000000000000000000, -0.000000000000000000, -1.000000000000000000 ) ) ;
#193 = DIRECTION ( 'NONE',  ( 0.000000000000000000, 0.000000000000000000, 1.000000000000000000 ) ) ;
#194 = CARTESIAN_POINT ( 'NONE',  ( 0.000000000000000000, 0.000000000000000000, 0.000000000000000000 ) ) ;
#195 = EDGE_LOOP ( 'NONE', ( #51, #26, #7, #127 ) ) ;
#196 = EDGE_CURVE ( 'NONE', #60, #115, #164, .T. ) ;
#197 =( NAMED_UNIT ( * ) PLANE_ANGLE_UNIT ( ) SI_UNIT ( $, .RADIAN. ) );
#198 = CARTESIAN_POINT ( 'NONE',  ( 0.000000000000000000, 0.000000000000000000, 9.999999999999998224 ) ) ;
#199 = CARTESIAN_POINT ( 'NONE',  ( 0.000000000000000000, 0.000000000000000000, 9.999999999999998224 ) ) ;
ENDSEC;
END-ISO-10303-21;
