ISO-10303-21;
HEADER;
FILE_DESCRIPTION (( 'STEP AP214' ),
    '1' );
FILE_NAME ('LargeBodyTubeSpacer.STEP',
    '2026-08-20T23:36:24',
    ( '' ),
    ( '' ),
    'SwSTEP 2.0',
    'SolidWorks 2025',
    '' );
FILE_SCHEMA (( 'AUTOMOTIVE_DESIGN' ));
ENDSEC;

DATA;
#1 = ORIENTED_EDGE ( 'NONE', *, *, #39, .T. ) ;
#2 = CARTESIAN_POINT ( 'NONE',  ( -37.42185881481933052, -2.419814707347453631, 5.648877463415312050 ) ) ;
#3 = CARTESIAN_POINT ( 'NONE',  ( -41.24240689321040065, -0.8056152946049969232, 7.372233259197539468 ) ) ;
#4 = DIRECTION ( 'NONE',  ( -0.000000000000000000, -0.000000000000000000, -1.000000000000000000 ) ) ;
#5 = FACE_OUTER_BOUND ( 'NONE', #17, .T. ) ;
#6 = ADVANCED_FACE ( 'NONE', ( #91 ), #337, .T. ) ;
#7 =( LENGTH_UNIT ( ) NAMED_UNIT ( * ) SI_UNIT ( .MILLI., .METRE. ) );
#8 = FACE_OUTER_BOUND ( 'NONE', #353, .T. ) ;
#9 = DIRECTION ( 'NONE',  ( 1.000000000000000000, -0.000000000000000000, -0.000000000000000000 ) ) ;
#10 = AXIS2_PLACEMENT_3D ( 'NONE', #34, #181, #139 ) ;
#11 = LINE ( 'NONE', #111, #222 ) ;
#12 = CYLINDRICAL_SURFACE ( 'NONE', #136, 2.500000000000000888 ) ;
#13 = VERTEX_POINT ( 'NONE', #408 ) ;
#14 = EDGE_CURVE ( 'NONE', #129, #384, #19, .T. ) ;
#15 = CARTESIAN_POINT ( 'NONE',  ( -37.44736994670224561, 1.988139733525541297, 6.524412530536805477 ) ) ;
#16 = VECTOR ( 'NONE', #197, 1000.000000000000114 ) ;
#17 = EDGE_LOOP ( 'NONE', ( #276, #21, #128, #57 ) ) ;
#18 = CYLINDRICAL_SURFACE ( 'NONE', #152, 41.25000000000000000 ) ;
#19 = LINE ( 'NONE', #94, #433 ) ;
#20 = CARTESIAN_POINT ( 'NONE',  ( -37.43264572765185250, 2.247436649678689502, 6.107187690799467106 ) ) ;
#21 = ORIENTED_EDGE ( 'NONE', *, *, #166, .F. ) ;
#22 = DIRECTION ( 'NONE',  ( 1.000000000000000000, 0.000000000000000000, 0.000000000000000000 ) ) ;
#23 = CARTESIAN_POINT ( 'NONE',  ( -37.49166000479913663, 0.8052243099977303142, 7.372444067819150071 ) ) ;
#24 = ORIENTED_EDGE ( 'NONE', *, *, #443, .T. ) ;
#25 = CARTESIAN_POINT ( 'NONE',  ( -41.17892089533527411, -2.420739208921419028, 4.354597544353177696 ) ) ;
#26 = VERTEX_POINT ( 'NONE', #445 ) ;
#27 = PRODUCT_CONTEXT ( 'NONE', #316, 'mechanical' ) ;
#28 = CARTESIAN_POINT ( 'NONE',  ( -41.17418095352911678, -2.499864561176586619, 5.166985009692872666 ) ) ;
#29 = VECTOR ( 'NONE', #9, 1000.000000000000000 ) ;
#30 = ORIENTED_EDGE ( 'NONE', *, *, #415, .F. ) ;
#31 = CARTESIAN_POINT ( 'NONE',  ( -36.22221848584008086, 0.000000000000000000, 5.000000000000000888 ) ) ;
#32 = CARTESIAN_POINT ( 'NONE',  ( -41.23112140329617858, -1.255288026867845685, 2.831774394819701168 ) ) ;
#33 = ORIENTED_EDGE ( 'NONE', *, *, #144, .T. ) ;
#34 = CARTESIAN_POINT ( 'NONE',  ( 0.000000000000000000, 0.000000000000000000, 10.00000000000000000 ) ) ;
#35 = CARTESIAN_POINT ( 'NONE',  ( -41.24903212730433211, -0.3253121238996843356, 7.484184000361590705 ) ) ;
#36 = AXIS2_PLACEMENT_3D ( 'NONE', #429, #104, #38 ) ;
#37 =( GEOMETRIC_REPRESENTATION_CONTEXT ( 3 ) GLOBAL_UNCERTAINTY_ASSIGNED_CONTEXT ( ( #262 ) ) GLOBAL_UNIT_ASSIGNED_CONTEXT ( ( #7, #46, #364 ) ) REPRESENTATION_CONTEXT ( 'NONE', 'WORKASPACE' ) );
#38 = DIRECTION ( 'NONE',  ( -1.000000000000000000, 0.000000000000000000, 0.000000000000000000 ) ) ;
#39 = EDGE_CURVE ( 'NONE', #74, #384, #77, .T. ) ;
#40 = LINE ( 'NONE', #253, #195 ) ;
#41 = FACE_OUTER_BOUND ( 'NONE', #103, .T. ) ;
#42 = EDGE_CURVE ( 'NONE', #13, #306, #258, .T. ) ;
#43 = CARTESIAN_POINT ( 'NONE',  ( -37.49475360744834518, 0.6472970356904331757, 2.579761752470867808 ) ) ;
#44 = DIRECTION ( 'NONE',  ( -0.000000000000000000, 0.000000000000000000, 1.000000000000000000 ) ) ;
#45 = EDGE_CURVE ( 'NONE', #306, #135, #315, .T. ) ;
#46 =( NAMED_UNIT ( * ) PLANE_ANGLE_UNIT ( ) SI_UNIT ( $, .RADIAN. ) );
#47 = VERTEX_POINT ( 'NONE', #210 ) ;
#48 = LINE ( 'NONE', #334, #419 ) ;
#49 = ADVANCED_FACE ( 'NONE', ( #180 ), #138, .F. ) ;
#50 = ORIENTED_EDGE ( 'NONE', *, *, #217, .T. ) ;
#51 = CIRCLE ( 'NONE', #113, 41.25000000000000000 ) ;
#52 = CARTESIAN_POINT ( 'NONE',  ( -37.49999999999997868, 0.1631855243256620513, 7.500000000000000888 ) ) ;
#53 = EDGE_LOOP ( 'NONE', ( #448, #132, #99, #449 ) ) ;
#54 = CARTESIAN_POINT ( 'NONE',  ( 0.000000000000000000, 0.000000000000000000, 0.000000000000000000 ) ) ;
#55 = CARTESIAN_POINT ( 'NONE',  ( 0.000000000000000000, 0.000000000000000000, 10.00000000000000000 ) ) ;
#56 = AXIS2_PLACEMENT_3D ( 'NONE', #293, #296, #328 ) ;
#57 = ORIENTED_EDGE ( 'NONE', *, *, #264, .T. ) ;
#58 = CARTESIAN_POINT ( 'NONE',  ( -36.22221848584008086, 0.000000000000000000, 5.000000000000000888 ) ) ;
#59 = CARTESIAN_POINT ( 'NONE',  ( -41.23120670777756658, 1.252428108848341548, 2.830180315979016648 ) ) ;
#60 = PRODUCT_DEFINITION_SHAPE ( 'NONE', 'NONE',  #198 ) ;
#61 = CARTESIAN_POINT ( 'NONE',  ( -37.41764833246190847, 2.484074837519091528, 4.673738582287392695 ) ) ;
#62 = ORIENTED_EDGE ( 'NONE', *, *, #14, .T. ) ;
#63 = CARTESIAN_POINT ( 'NONE',  ( -37.49999999999999289, 0.000000000000000000, 2.500000000000000000 ) ) ;
#64 = DIRECTION ( 'NONE',  ( 1.000000000000000000, 0.000000000000000000, 0.000000000000000000 ) ) ;
#65 = ORIENTED_EDGE ( 'NONE', *, *, #45, .T. ) ;
#66 = CARTESIAN_POINT ( 'NONE',  ( -41.24523034075681238, -0.6476523413493220360, 7.420236469924655687 ) ) ;
#67 = VERTEX_POINT ( 'NONE', #130 ) ;
#68 = CARTESIAN_POINT ( 'NONE',  ( -37.49164688568592396, -0.8056418038673219817, 7.372224312648023137 ) ) ;
#69 = CARTESIAN_POINT ( 'NONE',  ( -41.20721394610721688, -1.881845038109912327, 6.653849187704411250 ) ) ;
#70 = EDGE_CURVE ( 'NONE', #26, #67, #78, .T. ) ;
#71 = ORIENTED_EDGE ( 'NONE', *, *, #217, .F. ) ;
#72 = CARTESIAN_POINT ( 'NONE',  ( -36.22221848584008086, -9.705714191344430475, 10.00000000000000000 ) ) ;
#73 = CARTESIAN_POINT ( 'NONE',  ( -41.24999999999999289, -0.3303674315637920023, 2.499999999999999556 ) ) ;
#74 = VERTEX_POINT ( 'NONE', #284 ) ;
#75 = CARTESIAN_POINT ( 'NONE',  ( -37.41658285397968342, -2.499865506226685241, 5.166995278066901953 ) ) ;
#76 = DIRECTION ( 'NONE',  ( 1.000000000000000000, -0.000000000000000000, -0.000000000000000000 ) ) ;
#77 = B_SPLINE_CURVE_WITH_KNOTS ( 'NONE', 3,
 ( #125, #236, #371, #194, #442, #377, #59, #226, #440, #123, #202, #189, #227, #191, #332, #154, #148, #265, #297, #119, #406, #121, #335, #402, #86, #268, #404, #427, #216, #450, #280, #324, #98, #291 ),
 .UNSPECIFIED., .F., .F.,
 ( 4, 2, 2, 2, 2, 2, 2, 2, 2, 2, 2, 2, 2, 2, 2, 2, 4 ),
 ( 0.000000000000000000, 0.0004886206983397722338, 0.0009772413966795444676, 0.001465862095019317352, 0.001954482793359090236, 0.002443103491698862904, 0.002931724190038636005, 0.003420344888378409973, 0.003908965586718183942, 0.004397586285057957477, 0.004886206983397731879, 0.005374827681737505414, 0.005863448380077279816, 0.006352069078417053351, 0.006840689776756827753, 0.007329310475096601288, 0.007817931173436376557 ),
 .UNSPECIFIED. ) ;
#78 = CIRCLE ( 'NONE', #231, 41.25000000000000000 ) ;
#79 = PLANE ( 'NONE',  #56 ) ;
#80 = CARTESIAN_POINT ( 'NONE',  ( -37.49999999999999289, 0.000000000000000000, 0.000000000000000000 ) ) ;
#81 = AXIS2_PLACEMENT_3D ( 'NONE', #55, #272, #235 ) ;
#82 = FILL_AREA_STYLE ('',( #401 ) ) ;
#83 = PRODUCT_RELATED_PRODUCT_CATEGORY ( 'part', '', ( #157 ) ) ;
#84 = CARTESIAN_POINT ( 'NONE',  ( 0.000000000000000000, 0.000000000000000000, 10.00000000000000000 ) ) ;
#85 = EDGE_CURVE ( 'NONE', #306, #386, #354, .T. ) ;
#86 = CARTESIAN_POINT ( 'NONE',  ( -41.20708184224306336, 1.884819527449959287, 6.650664718453245250 ) ) ;
#87 = CARTESIAN_POINT ( 'NONE',  ( -37.41656997549380748, 2.500058253801711761, 5.162213868423872754 ) ) ;
#88 = ORIENTED_EDGE ( 'NONE', *, *, #264, .F. ) ;
#89 = B_SPLINE_CURVE_WITH_KNOTS ( 'NONE', 3,
 ( #393, #137, #246, #387, #68, #215, #212, #355, #287, #391, #358, #323, #2, #290, #75, #218, #325, #274, #381, #203, #97, #200, #209, #340, #206, #100, #446, #351, #409, #63 ),
 .UNSPECIFIED., .F., .F.,
 ( 4, 2, 2, 2, 2, 2, 2, 2, 2, 2, 2, 2, 2, 2, 4 ),
 ( 0.007818307371341030876, 0.008306839380712013887, 0.008795371390082996899, 0.009772435408824962921, 0.01026096741819594420, 0.01074949942756692547, 0.01123803143693790675, 0.01172656344630888803, 0.01221509545567986930, 0.01270362746505085058, 0.01319215947442183012, 0.01368069148379281140, 0.01416922349316379268, 0.01465775550253477222, 0.01563481952127673130 ),
 .UNSPECIFIED. ) ;
#90 = CARTESIAN_POINT ( 'NONE',  ( -37.46922209000966575, 1.525040063801660128, 6.987655239243010463 ) ) ;
#91 = FACE_OUTER_BOUND ( 'NONE', #176, .T. ) ;
#92 = CARTESIAN_POINT ( 'NONE',  ( -37.43732157581700193, 2.169140095537327895, 6.253540748923998471 ) ) ;
#93 = VECTOR ( 'NONE', #330, 1000.000000000000000 ) ;
#94 = CARTESIAN_POINT ( 'NONE',  ( -41.25000000000000000, 0.000000000000000000, 10.00000000000000000 ) ) ;
#95 = CARTESIAN_POINT ( 'NONE',  ( -37.49999999999999289, -1.092789290480037129E-23, 7.500000000000002665 ) ) ;
#96 = ORIENTED_EDGE ( 'NONE', *, *, #344, .T. ) ;
#97 = CARTESIAN_POINT ( 'NONE',  ( -37.43722546196044476, -2.170799843375009530, 3.749289792657336307 ) ) ;
#98 = CARTESIAN_POINT ( 'NONE',  ( -41.25000000000000000, 0.1631817703127183550, 7.500000000000000888 ) ) ;
#99 = ORIENTED_EDGE ( 'NONE', *, *, #415, .T. ) ;
#100 = CARTESIAN_POINT ( 'NONE',  ( -37.47923289043566086, -1.255280651108701795, 2.831769141220806585 ) ) ;
#101 = DIRECTION ( 'NONE',  ( 1.000000000000000000, 0.000000000000000000, 0.000000000000000000 ) ) ;
#102 = EDGE_CURVE ( 'NONE', #384, #74, #118, .T. ) ;
#103 = EDGE_LOOP ( 'NONE', ( #342, #310, #410, #347, #374, #318 ) ) ;
#104 = DIRECTION ( 'NONE',  ( -0.000000000000000000, -0.000000000000000000, -1.000000000000000000 ) ) ;
#105 = CARTESIAN_POINT ( 'NONE',  ( -41.20208288075746594, -1.989744535225677513, 3.477645629960684825 ) ) ;
#106 = ORIENTED_EDGE ( 'NONE', *, *, #266, .F. ) ;
#107 = CARTESIAN_POINT ( 'NONE',  ( -37.49999999999999289, 0.000000000000000000, 10.00000000000000000 ) ) ;
#108 = CARTESIAN_POINT ( 'NONE',  ( -41.24583912142706765, -0.6585695110872389346, 2.566421442338256309 ) ) ;
#109 = CYLINDRICAL_SURFACE ( 'NONE', #36, 37.49999999999999289 ) ;
#110 = DIRECTION ( 'NONE',  ( -0.000000000000000000, -0.000000000000000000, -1.000000000000000000 ) ) ;
#111 = CARTESIAN_POINT ( 'NONE',  ( -41.25000000000000000, 0.000000000000000000, 10.00000000000000000 ) ) ;
#112 = CARTESIAN_POINT ( 'NONE',  ( -36.22221848584008086, 0.000000000000000000, 2.500000000000000000 ) ) ;
#113 = AXIS2_PLACEMENT_3D ( 'NONE', #142, #365, #221 ) ;
#114 = VECTOR ( 'NONE', #4, 1000.000000000000000 ) ;
#115 = CYLINDRICAL_SURFACE ( 'NONE', #399, 41.25000000000000000 ) ;
#116 = MECHANICAL_DESIGN_GEOMETRIC_PRESENTATION_REPRESENTATION (  '', ( #178 ), #37 ) ;
#117 = DIRECTION ( 'NONE',  ( -0.000000000000000000, -0.000000000000000000, -1.000000000000000000 ) ) ;
#118 = B_SPLINE_CURVE_WITH_KNOTS ( 'NONE', 3,
 ( #168, #388, #35, #66, #3, #392, #240, #69, #385, #394, #414, #352, #382, #348, #28, #175, #171, #25, #311, #421, #250, #105, #247, #213, #356, #32, #320, #108, #73, #294 ),
 .UNSPECIFIED., .F., .F.,
 ( 4, 2, 2, 2, 2, 2, 2, 2, 2, 2, 2, 2, 2, 2, 4 ),
 ( 0.007817931173436376557, 0.008306440010800532348, 0.008794948848164688138, 0.009771966522893001453, 0.01026047536025715724, 0.01074898419762131303, 0.01123749303498546882, 0.01172600187234962461, 0.01221451070971378040, 0.01270301954707793619, 0.01319152838444209372, 0.01368003722180624777, 0.01416854605917040356, 0.01465705489653455935, 0.01563407257126287267 ),
 .UNSPECIFIED. ) ;
#119 = CARTESIAN_POINT ( 'NONE',  ( -41.17896811792578404, 2.419939599393353014, 5.648552486718929622 ) ) ;
#120 = CARTESIAN_POINT ( 'NONE',  ( -37.42185450570102034, 2.419884270854882669, 4.350974248005154088 ) ) ;
#121 = CARTESIAN_POINT ( 'NONE',  ( -41.18877740284002442, 2.247454241150564247, 6.107151068940163796 ) ) ;
#122 = CARTESIAN_POINT ( 'NONE',  ( 0.000000000000000000, 0.000000000000000000, 0.000000000000000000 ) ) ;
#123 = CARTESIAN_POINT ( 'NONE',  ( -41.20714394879185960, 1.883375237664241642, 3.347883789788987485 ) ) ;
#124 = CARTESIAN_POINT ( 'NONE',  ( -37.47926227786840059, 1.254292762243823800, 7.168702426077197210 ) ) ;
#125 = CARTESIAN_POINT ( 'NONE',  ( -41.25000000000000000, 0.000000000000000000, 2.500000000000000000 ) ) ;
#126 = EDGE_CURVE ( 'NONE', #67, #454, #51, .T. ) ;
#127 = DIRECTION ( 'NONE',  ( 1.000000000000000000, -0.000000000000000000, -0.000000000000000000 ) ) ;
#128 = ORIENTED_EDGE ( 'NONE', *, *, #383, .T. ) ;
#129 = VERTEX_POINT ( 'NONE', #430 ) ;
#130 = CARTESIAN_POINT ( 'NONE',  ( -41.25000000000000000, 0.000000000000000000, 0.000000000000000000 ) ) ;
#131 = EDGE_CURVE ( 'NONE', #150, #173, #172, .T. ) ;
#132 = ORIENTED_EDGE ( 'NONE', *, *, #431, .T. ) ;
#133 = DIRECTION ( 'NONE',  ( -0.000000000000000000, 0.000000000000000000, 1.000000000000000000 ) ) ;
#134 = VECTOR ( 'NONE', #255, 1000.000000000000000 ) ;
#135 = VERTEX_POINT ( 'NONE', #261 ) ;
#136 = AXIS2_PLACEMENT_3D ( 'NONE', #58, #127, #193 ) ;
#137 = CARTESIAN_POINT ( 'NONE',  ( -37.49999999999999289, -0.1631480540482216635, 7.500000000000003553 ) ) ;
#138 = CYLINDRICAL_SURFACE ( 'NONE', #451, 37.49999999999999289 ) ;
#139 = DIRECTION ( 'NONE',  ( 0.9659258262890689783, 0.2588190451025181860, 0.000000000000000000 ) ) ;
#140 = CARTESIAN_POINT ( 'NONE',  ( 0.000000000000000000, 0.000000000000000000, 0.000000000000000000 ) ) ;
#141 = CARTESIAN_POINT ( 'NONE',  ( -37.49999999999999289, 0.000000000000000000, 10.00000000000000000 ) ) ;
#142 = CARTESIAN_POINT ( 'NONE',  ( 0.000000000000000000, 0.000000000000000000, 0.000000000000000000 ) ) ;
#143 = CARTESIAN_POINT ( 'NONE',  ( -37.49999999999999289, 0.000000000000000000, 2.500000000000000000 ) ) ;
#144 = EDGE_CURVE ( 'NONE', #74, #199, #186, .T. ) ;
#145 = AXIS2_PLACEMENT_3D ( 'NONE', #435, #44, #400 ) ;
#146 = ADVANCED_FACE ( 'NONE', ( #223 ), #115, .T. ) ;
#147 = DIRECTION ( 'NONE',  ( -0.000000000000000000, 0.000000000000000000, 1.000000000000000000 ) ) ;
#148 = CARTESIAN_POINT ( 'NONE',  ( -41.17417627972818650, 2.499941537172636785, 4.836005855572548029 ) ) ;
#149 = CARTESIAN_POINT ( 'NONE',  ( -0.000000000000000000, 0.000000000000000000, 0.000000000000000000 ) ) ;
#150 = VERTEX_POINT ( 'NONE', #80 ) ;
#151 = MANIFOLD_SOLID_BREP ( 'Cut-Extrude1', #192 ) ;
#152 = AXIS2_PLACEMENT_3D ( 'NONE', #238, #156, #153 ) ;
#153 = DIRECTION ( 'NONE',  ( -1.000000000000000000, 0.000000000000000000, 0.000000000000000000 ) ) ;
#154 = CARTESIAN_POINT ( 'NONE',  ( -41.17514901446352127, 2.484076749302393416, 4.673754192126352791 ) ) ;
#155 = CARTESIAN_POINT ( 'NONE',  ( -36.22221848584008086, 9.705714191344428698, 10.00000000000000000 ) ) ;
#156 = DIRECTION ( 'NONE',  ( -0.000000000000000000, -0.000000000000000000, -1.000000000000000000 ) ) ;
#157 = PRODUCT ( 'LargeBodyTubeSpacer', 'LargeBodyTubeSpacer', '', ( #27 ) ) ;
#158 = ORIENTED_EDGE ( 'NONE', *, *, #298, .T. ) ;
#159 = ADVANCED_FACE ( 'NONE', ( #8 ), #79, .T. ) ;
#160 = LINE ( 'NONE', #378, #234 ) ;
#161 = DIRECTION ( 'NONE',  ( 1.000000000000000000, 0.000000000000000000, 0.000000000000000000 ) ) ;
#162 = ORIENTED_EDGE ( 'NONE', *, *, #289, .F. ) ;
#163 = ADVANCED_BREP_SHAPE_REPRESENTATION ( 'LargeBodyTubeSpacer', ( #151, #457 ), #177 ) ;
#164 =( NAMED_UNIT ( * ) SI_UNIT ( $, .STERADIAN. ) SOLID_ANGLE_UNIT ( ) );
#165 = ORIENTED_EDGE ( 'NONE', *, *, #131, .F. ) ;
#166 = EDGE_CURVE ( 'NONE', #386, #173, #263, .T. ) ;
#167 =( NAMED_UNIT ( * ) PLANE_ANGLE_UNIT ( ) SI_UNIT ( $, .RADIAN. ) );
#168 = CARTESIAN_POINT ( 'NONE',  ( -41.25000000000000000, -1.007927578600886784E-23, 7.500000000000002665 ) ) ;
#169 = VERTEX_POINT ( 'NONE', #187 ) ;
#170 = APPLICATION_PROTOCOL_DEFINITION ( 'draft international standard', 'automotive_design', 1998, #363 ) ;
#171 = CARTESIAN_POINT ( 'NONE',  ( -41.17515254611309672, -2.484012324084782009, 4.674108267733944722 ) ) ;
#172 = CIRCLE ( 'NONE', #145, 37.49999999999999289 ) ;
#173 = VERTEX_POINT ( 'NONE', #437 ) ;
#174 = LINE ( 'NONE', #107, #134 ) ;
#175 = CARTESIAN_POINT ( 'NONE',  ( -41.17416460756400198, -2.500133773902860845, 4.837095333771638472 ) ) ;
#176 = EDGE_LOOP ( 'NONE', ( #96, #367, #389, #322, #241, #214 ) ) ;
#177 =( GEOMETRIC_REPRESENTATION_CONTEXT ( 3 ) GLOBAL_UNCERTAINTY_ASSIGNED_CONTEXT ( ( #373 ) ) GLOBAL_UNIT_ASSIGNED_CONTEXT ( ( #307, #167, #164 ) ) REPRESENTATION_CONTEXT ( 'NONE', 'WORKASPACE' ) );
#178 = STYLED_ITEM ( 'NONE', ( #366 ), #151 ) ;
#179 = DIRECTION ( 'NONE',  ( -0.000000000000000000, 0.000000000000000000, 1.000000000000000000 ) ) ;
#180 = FACE_OUTER_BOUND ( 'NONE', #416, .T. ) ;
#181 = DIRECTION ( 'NONE',  ( 0.2588190451025181860, -0.9659258262890689783, 0.000000000000000000 ) ) ;
#182 = PLANE ( 'NONE',  #10 ) ;
#183 = PLANE ( 'NONE',  #285 ) ;
#184 = CIRCLE ( 'NONE', #398, 41.25000000000000000 ) ;
#185 = ADVANCED_FACE ( 'NONE', ( #41 ), #183, .F. ) ;
#186 = LINE ( 'NONE', #112, #29 ) ;
#187 = CARTESIAN_POINT ( 'NONE',  ( -39.84444033442409250, 10.67628561047887281, 10.00000000000000000 ) ) ;
#188 = DIRECTION ( 'NONE',  ( -1.000000000000000000, 0.000000000000000000, 0.000000000000000000 ) ) ;
#189 = CARTESIAN_POINT ( 'NONE',  ( -41.19300547676208168, 2.169601516128572882, 3.747061574069651790 ) ) ;
#190 = CARTESIAN_POINT ( 'NONE',  ( -37.42491459726090142, 2.372699950254860024, 5.804444543170887982 ) ) ;
#191 = CARTESIAN_POINT ( 'NONE',  ( -41.18179803962046037, 2.371899643133803970, 4.193398488653826028 ) ) ;
#192 = CLOSED_SHELL ( 'NONE', ( #251, #49, #220, #146, #396, #350, #159, #6, #185, #317 ) ) ;
#193 = DIRECTION ( 'NONE',  ( 0.000000000000000000, 0.000000000000000000, -1.000000000000000000 ) ) ;
#194 = CARTESIAN_POINT ( 'NONE',  ( -41.24523099188689912, 0.6472707931267537296, 2.579755124511244002 ) ) ;
#195 = VECTOR ( 'NONE', #455, 1000.000000000000114 ) ;
#196 = COLOUR_RGB ( '',0.7921568627450980005, 0.8196078431372548767, 0.9333333333333333481 ) ;
#197 = DIRECTION ( 'NONE',  ( -0.9659258262890689783, -0.2588190451025181860, 0.000000000000000000 ) ) ;
#198 = PRODUCT_DEFINITION ( 'UNKNOWN', '', #260, #329 ) ;
#199 = VERTEX_POINT ( 'NONE', #257 ) ;
#200 = CARTESIAN_POINT ( 'NONE',  ( -37.44728579298860893, -1.989725857471676518, 3.477620614020047185 ) ) ;
#201 = CARTESIAN_POINT ( 'NONE',  ( -37.47932563904069525, 1.252451981902923839, 2.830194288401440605 ) ) ;
#202 = CARTESIAN_POINT ( 'NONE',  ( -41.20222452051205408, 1.986848134269854516, 3.473743164041970921 ) ) ;
#203 = CARTESIAN_POINT ( 'NONE',  ( -37.43264187424592393, -2.247502181683969091, 3.892919650536550424 ) ) ;
#204 = CARTESIAN_POINT ( 'NONE',  ( -37.46380063591159626, 1.651449833757183239, 6.884131963527845066 ) ) ;
#205 = ORIENTED_EDGE ( 'NONE', *, *, #298, .F. ) ;
#206 = CARTESIAN_POINT ( 'NONE',  ( -37.46910280944131699, -1.528058318284643891, 3.014554874610896995 ) ) ;
#207 = DIRECTION ( 'NONE',  ( 1.000000000000000000, 0.000000000000000000, 0.000000000000000000 ) ) ;
#208 = ORIENTED_EDGE ( 'NONE', *, *, #70, .T. ) ;
#209 = CARTESIAN_POINT ( 'NONE',  ( -37.45280884588811432, -1.884255964933101213, 3.348885331534960486 ) ) ;
#210 = CARTESIAN_POINT ( 'NONE',  ( -39.84444033442409250, -10.67628561047887459, 10.00000000000000000 ) ) ;
#211 = ORIENTED_EDGE ( 'NONE', *, *, #102, .T. ) ;
#212 = CARTESIAN_POINT ( 'NONE',  ( -37.46924471024554038, -1.535906172350956167, 6.999305183621253867 ) ) ;
#213 = CARTESIAN_POINT ( 'NONE',  ( -41.21699767886981647, -1.653756593984656575, 3.118060903722425614 ) ) ;
#214 = ORIENTED_EDGE ( 'NONE', *, *, #443, .F. ) ;
#215 = CARTESIAN_POINT ( 'NONE',  ( -37.48013709584301267, -1.256941902085285001, 7.185434665555131772 ) ) ;
#216 = CARTESIAN_POINT ( 'NONE',  ( -41.23539114743363854, 1.108139385397778343, 7.246977268831929386 ) ) ;
#217 = EDGE_CURVE ( 'NONE', #199, #135, #301, .T. ) ;
#218 = CARTESIAN_POINT ( 'NONE',  ( -37.41656499117119239, -2.500132852352320967, 4.837056167016715591 ) ) ;
#219 = DIRECTION ( 'NONE',  ( 0.000000000000000000, 0.000000000000000000, -1.000000000000000000 ) ) ;
#220 = ADVANCED_FACE ( 'NONE', ( #441 ), #18, .T. ) ;
#221 = DIRECTION ( 'NONE',  ( 1.000000000000000000, 0.000000000000000000, 0.000000000000000000 ) ) ;
#222 = VECTOR ( 'NONE', #292, 1000.000000000000000 ) ;
#223 = FACE_OUTER_BOUND ( 'NONE', #420, .T. ) ;
#224 = SURFACE_STYLE_USAGE ( .BOTH. , #225 ) ;
#225 = SURFACE_SIDE_STYLE ('',( #432 ) ) ;
#226 = CARTESIAN_POINT ( 'NONE',  ( -41.22205560638648336, 1.524176607645820081, 3.011639042401095256 ) ) ;
#227 = CARTESIAN_POINT ( 'NONE',  ( -41.18878905500717735, 2.247232492491274769, 3.892543436564820603 ) ) ;
#228 = CARTESIAN_POINT ( 'NONE',  ( -37.45278539444866794, 1.884810557620588023, 6.650675307650141477 ) ) ;
#229 = EDGE_CURVE ( 'NONE', #129, #47, #375, .T. ) ;
#230 = EDGE_LOOP ( 'NONE', ( #412, #277, #33, #50 ) ) ;
#231 = AXIS2_PLACEMENT_3D ( 'NONE', #140, #133, #64 ) ;
#232 = LINE ( 'NONE', #149, #16 ) ;
#233 = DIRECTION ( 'NONE',  ( -0.000000000000000000, 0.000000000000000000, 1.000000000000000000 ) ) ;
#234 = VECTOR ( 'NONE', #417, 1000.000000000000114 ) ;
#235 = DIRECTION ( 'NONE',  ( 1.000000000000000000, 0.000000000000000000, 0.000000000000000000 ) ) ;
#236 = CARTESIAN_POINT ( 'NONE',  ( -41.25000000000000711, 0.1652215403004925476, 2.499999999999999556 ) ) ;
#237 = LINE ( 'NONE', #243, #338 ) ;
#238 = CARTESIAN_POINT ( 'NONE',  ( 0.000000000000000000, 0.000000000000000000, 10.00000000000000000 ) ) ;
#239 = EDGE_LOOP ( 'NONE', ( #390, #309, #248, #165, #205, #30 ) ) ;
#240 = CARTESIAN_POINT ( 'NONE',  ( -41.22204261700398575, -1.535900476187885610, 6.999310195983470706 ) ) ;
#241 = ORIENTED_EDGE ( 'NONE', *, *, #42, .F. ) ;
#242 = EDGE_CURVE ( 'NONE', #281, #150, #422, .T. ) ;
#243 = CARTESIAN_POINT ( 'NONE',  ( -36.22221848584008086, 3.061616997868384127E-16, 7.500000000000001776 ) ) ;
#244 = CARTESIAN_POINT ( 'NONE',  ( 0.000000000000000000, 0.000000000000000000, 10.00000000000000000 ) ) ;
#245 = ORIENTED_EDGE ( 'NONE', *, *, #126, .T. ) ;
#246 = CARTESIAN_POINT ( 'NONE',  ( -37.49893529933210345, -0.3253251780830339612, 7.484183335947339977 ) ) ;
#247 = CARTESIAN_POINT ( 'NONE',  ( -41.20710298952901951, -1.884269551432403045, 3.348899187877820260 ) ) ;
#248 = ORIENTED_EDGE ( 'NONE', *, *, #166, .T. ) ;
#249 = CARTESIAN_POINT ( 'NONE',  ( -39.84444033442409250, 10.67628561047887281, 10.00000000000000000 ) ) ;
#250 = CARTESIAN_POINT ( 'NONE',  ( -41.19293996740292840, -2.170809496526051596, 3.749307282650706341 ) ) ;
#251 = ADVANCED_FACE ( 'NONE', ( #405 ), #12, .F. ) ;
#252 = ORIENTED_EDGE ( 'NONE', *, *, #229, .F. ) ;
#253 = CARTESIAN_POINT ( 'NONE',  ( 0.000000000000000000, 0.000000000000000000, 10.00000000000000000 ) ) ;
#254 = DIRECTION ( 'NONE',  ( -0.000000000000000000, 0.000000000000000000, 1.000000000000000000 ) ) ;
#255 = DIRECTION ( 'NONE',  ( -0.000000000000000000, -0.000000000000000000, -1.000000000000000000 ) ) ;
#256 = EDGE_CURVE ( 'NONE', #173, #454, #232, .T. ) ;
#257 = CARTESIAN_POINT ( 'NONE',  ( -37.49999999999999289, 0.000000000000000000, 2.500000000000000000 ) ) ;
#258 = CIRCLE ( 'NONE', #369, 37.49999999999999289 ) ;
#259 = CARTESIAN_POINT ( 'NONE',  ( 0.000000000000000000, 0.000000000000000000, 0.000000000000000000 ) ) ;
#260 = PRODUCT_DEFINITION_FORMATION_WITH_SPECIFIED_SOURCE ( 'ANY', '', #157, .NOT_KNOWN. ) ;
#261 = CARTESIAN_POINT ( 'NONE',  ( -37.49999999999999289, -1.092789290480037129E-23, 7.500000000000002665 ) ) ;
#262 = UNCERTAINTY_MEASURE_WITH_UNIT (LENGTH_MEASURE( 1.000000000000000082E-05 ), #7, 'distance_accuracy_value', 'NONE');
#263 = LINE ( 'NONE', #362, #93 ) ;
#264 = EDGE_CURVE ( 'NONE', #47, #454, #48, .T. ) ;
#265 = CARTESIAN_POINT ( 'NONE',  ( -41.17416919967153888, 2.500058143370087027, 5.162206807676158249 ) ) ;
#266 = EDGE_CURVE ( 'NONE', #26, #281, #341, .T. ) ;
#267 = DIRECTION ( 'NONE',  ( 0.9659258262890689783, -0.2588190451025181860, 0.000000000000000000 ) ) ;
#268 = CARTESIAN_POINT ( 'NONE',  ( -41.21709355207126890, 1.651465326363259933, 6.884118080063693412 ) ) ;
#269 = CARTESIAN_POINT ( 'NONE',  ( -37.49471966187348926, 0.6493624311822293604, 7.419714850847693555 ) ) ;
#270 = DIRECTION ( 'NONE',  ( 1.000000000000000000, 0.000000000000000000, 0.000000000000000000 ) ) ;
#271 = SHAPE_DEFINITION_REPRESENTATION ( #60, #163 ) ;
#272 = DIRECTION ( 'NONE',  ( -0.000000000000000000, 0.000000000000000000, 1.000000000000000000 ) ) ;
#273 = ORIENTED_EDGE ( 'NONE', *, *, #428, .T. ) ;
#274 = CARTESIAN_POINT ( 'NONE',  ( -37.42179920298842433, -2.420733308196472144, 4.354573381419792000 ) ) ;
#275 = CARTESIAN_POINT ( 'NONE',  ( -37.49164076127335932, 0.8061041871652796509, 2.627859350589212717 ) ) ;
#276 = ORIENTED_EDGE ( 'NONE', *, *, #256, .F. ) ;
#277 = ORIENTED_EDGE ( 'NONE', *, *, #39, .F. ) ;
#278 = VECTOR ( 'NONE', #453, 1000.000000000000000 ) ;
#279 = DIRECTION ( 'NONE',  ( 1.000000000000000000, -0.000000000000000000, -0.000000000000000000 ) ) ;
#280 = CARTESIAN_POINT ( 'NONE',  ( -41.24520015540051787, 0.6493339408033937943, 7.419721854863315258 ) ) ;
#281 = VERTEX_POINT ( 'NONE', #403 ) ;
#282 = VECTOR ( 'NONE', #267, 1000.000000000000114 ) ;
#283 = CARTESIAN_POINT ( 'NONE',  ( -39.84444033442409250, -10.67628561047887459, 0.000000000000000000 ) ) ;
#284 = CARTESIAN_POINT ( 'NONE',  ( -41.25000000000000000, 0.000000000000000000, 2.500000000000000000 ) ) ;
#285 = AXIS2_PLACEMENT_3D ( 'NONE', #259, #147, #327 ) ;
#286 = ORIENTED_EDGE ( 'NONE', *, *, #289, .T. ) ;
#287 = CARTESIAN_POINT ( 'NONE',  ( -37.44740768737500503, -1.987444085521756554, 6.525377126070800671 ) ) ;
#288 = CARTESIAN_POINT ( 'NONE',  ( 0.000000000000000000, 0.000000000000000000, 10.00000000000000000 ) ) ;
#289 = EDGE_CURVE ( 'NONE', #74, #67, #11, .T. ) ;
#290 = CARTESIAN_POINT ( 'NONE',  ( -37.41768201221288592, -2.483564617054793366, 5.329320472088835636 ) ) ;
#291 = CARTESIAN_POINT ( 'NONE',  ( -41.25000000000000000, -1.007927578600886784E-23, 7.500000000000002665 ) ) ;
#292 = DIRECTION ( 'NONE',  ( -0.000000000000000000, -0.000000000000000000, -1.000000000000000000 ) ) ;
#293 = CARTESIAN_POINT ( 'NONE',  ( -4.489794735692382889E-16, -1.675614206915943023E-15, 10.00000000000000000 ) ) ;
#294 = CARTESIAN_POINT ( 'NONE',  ( -41.25000000000000000, 0.000000000000000000, 2.500000000000000000 ) ) ;
#295 = CARTESIAN_POINT ( 'NONE',  ( -37.49999999999998579, 0.1652301067654363687, 2.500000000000000444 ) ) ;
#296 = DIRECTION ( 'NONE',  ( 0.2588190451025181860, 0.9659258262890689783, -0.000000000000000000 ) ) ;
#297 = CARTESIAN_POINT ( 'NONE',  ( -41.17516601351164240, 2.483792801667575212, 5.327873925656961163 ) ) ;
#298 = EDGE_CURVE ( 'NONE', #199, #150, #174, .T. ) ;
#299 = DIRECTION ( 'NONE',  ( -0.000000000000000000, -0.000000000000000000, -1.000000000000000000 ) ) ;
#300 = DIRECTION ( 'NONE',  ( -0.000000000000000000, -0.000000000000000000, -1.000000000000000000 ) ) ;
#301 = B_SPLINE_CURVE_WITH_KNOTS ( 'NONE', 3,
 ( #143, #295, #397, #43, #275, #305, #201, #372, #343, #336, #444, #302, #308, #407, #120, #61, #447, #87, #370, #411, #190, #20, #92, #15, #228, #204, #90, #124, #346, #23, #269, #379, #52, #95 ),
 .UNSPECIFIED., .F., .F.,
 ( 4, 2, 2, 2, 2, 2, 2, 2, 2, 2, 2, 2, 2, 2, 2, 2, 4 ),
 ( 0.000000000000000000, 0.0004886442107088154055, 0.0009772884214176308110, 0.001465932632126446325, 0.001954576842835261622, 0.002443221053544076919, 0.002931865264252892650, 0.003420509474961706646, 0.003909153685670520642, 0.004397797896379335506, 0.004886442107088148634, 0.005375086317796962630, 0.005863730528505775759, 0.006352374739214590622, 0.006841018949923403751, 0.007329663160632217747, 0.007818307371341030876 ),
 .UNSPECIFIED. ) ;
#302 = CARTESIAN_POINT ( 'NONE',  ( -37.43729740036957310, 2.169594153318489482, 3.747048982877902112 ) ) ;
#303 = CARTESIAN_POINT ( 'NONE',  ( 0.000000000000000000, 0.000000000000000000, 10.00000000000000000 ) ) ;
#304 = APPLICATION_PROTOCOL_DEFINITION ( 'draft international standard', 'automotive_design', 1998, #316 ) ;
#305 = CARTESIAN_POINT ( 'NONE',  ( -37.48390788041433552, 1.108864710211304727, 2.753386042151338309 ) ) ;
#306 = VERTEX_POINT ( 'NONE', #141 ) ;
#307 =( LENGTH_UNIT ( ) NAMED_UNIT ( * ) SI_UNIT ( .MILLI., .METRE. ) );
#308 = CARTESIAN_POINT ( 'NONE',  ( -37.43265822479936844, 2.247220205199239818, 3.892518689408683397 ) ) ;
#309 = ORIENTED_EDGE ( 'NONE', *, *, #85, .T. ) ;
#310 = ORIENTED_EDGE ( 'NONE', *, *, #266, .T. ) ;
#311 = CARTESIAN_POINT ( 'NONE',  ( -41.18174209754972281, -2.372879966386896911, 4.196048333213731496 ) ) ;
#312 = ORIENTED_EDGE ( 'NONE', *, *, #242, .F. ) ;
#313 = AXIS2_PLACEMENT_3D ( 'NONE', #244, #425, #207 ) ;
#314 = LINE ( 'NONE', #155, #321 ) ;
#315 = LINE ( 'NONE', #418, #278 ) ;
#316 = APPLICATION_CONTEXT ( 'automotive_design' ) ;
#317 = ADVANCED_FACE ( 'NONE', ( #395 ), #360, .F. ) ;
#318 = ORIENTED_EDGE ( 'NONE', *, *, #126, .F. ) ;
#319 = CARTESIAN_POINT ( 'NONE',  ( 0.000000000000000000, 0.000000000000000000, 10.00000000000000000 ) ) ;
#320 = CARTESIAN_POINT ( 'NONE',  ( -41.23534792927143400, -1.109592632377045973, 2.753823517733802628 ) ) ;
#321 = VECTOR ( 'NONE', #413, 1000.000000000000000 ) ;
#322 = ORIENTED_EDGE ( 'NONE', *, *, #85, .F. ) ;
#323 = CARTESIAN_POINT ( 'NONE',  ( -37.42498767784665148, -2.371551270260670474, 5.807801013139389568 ) ) ;
#324 = CARTESIAN_POINT ( 'NONE',  ( -41.24899979743931766, 0.3289166103745173042, 7.483646972700054967 ) ) ;
#325 = CARTESIAN_POINT ( 'NONE',  ( -37.41765213402084811, -2.484011697960092135, 4.674099472566950908 ) ) ;
#326 = CARTESIAN_POINT ( 'NONE',  ( -41.25000000000000000, -1.007927578600886784E-23, 7.500000000000002665 ) ) ;
#327 = DIRECTION ( 'NONE',  ( 1.000000000000000000, 0.000000000000000000, 0.000000000000000000 ) ) ;
#328 = DIRECTION ( 'NONE',  ( -0.9659258262890689783, 0.2588190451025181860, 0.000000000000000000 ) ) ;
#329 = PRODUCT_DEFINITION_CONTEXT ( 'detailed design', #363, 'design' ) ;
#330 = DIRECTION ( 'NONE',  ( -0.000000000000000000, -0.000000000000000000, -1.000000000000000000 ) ) ;
#331 = EDGE_CURVE ( 'NONE', #169, #26, #424, .T. ) ;
#332 = CARTESIAN_POINT ( 'NONE',  ( -41.17897120465389804, 2.419889292092828992, 4.350993499574659751 ) ) ;
#333 = AXIS2_PLACEMENT_3D ( 'NONE', #303, #233, #270 ) ;
#334 = CARTESIAN_POINT ( 'NONE',  ( -39.84444033442409250, -10.67628561047887459, 10.00000000000000000 ) ) ;
#335 = CARTESIAN_POINT ( 'NONE',  ( -41.19302707643135619, 2.169154630343492762, 6.253516390213363252 ) ) ;
#336 = CARTESIAN_POINT ( 'NONE',  ( -37.45285346758066680, 1.883370767777490462, 3.347879603442856400 ) ) ;
#337 = PLANE ( 'NONE',  #333 ) ;
#338 = VECTOR ( 'NONE', #279, 1000.000000000000000 ) ;
#339 = AXIS2_PLACEMENT_3D ( 'NONE', #122, #376, #161 ) ;
#340 = CARTESIAN_POINT ( 'NONE',  ( -37.46369399657607602, -1.653766343511370529, 3.118070917681694532 ) ) ;
#341 = LINE ( 'NONE', #439, #282 ) ;
#342 = ORIENTED_EDGE ( 'NONE', *, *, #70, .F. ) ;
#343 = CARTESIAN_POINT ( 'NONE',  ( -37.46373596858602895, 1.652817469977047482, 3.117240943567769929 ) ) ;
#344 = EDGE_CURVE ( 'NONE', #169, #129, #184, .T. ) ;
#345 = DIRECTION ( 'NONE',  ( 0.000000000000000000, 0.000000000000000000, 1.000000000000000000 ) ) ;
#346 = CARTESIAN_POINT ( 'NONE',  ( -37.48392931892822588, 1.108151126182642443, 7.246970877844602477 ) ) ;
#347 = ORIENTED_EDGE ( 'NONE', *, *, #131, .T. ) ;
#348 = CARTESIAN_POINT ( 'NONE',  ( -41.17517956314178207, -2.483567485280623988, 5.329298451655934521 ) ) ;
#349 = ORIENTED_EDGE ( 'NONE', *, *, #14, .F. ) ;
#350 = ADVANCED_FACE ( 'NONE', ( #426 ), #109, .F. ) ;
#351 = CARTESIAN_POINT ( 'NONE',  ( -37.49542241466276238, -0.6586067868727467634, 2.566432243215142517 ) ) ;
#352 = CARTESIAN_POINT ( 'NONE',  ( -41.18181859378056231, -2.371554797335638565, 5.807788639302369660 ) ) ;
#353 = EDGE_LOOP ( 'NONE', ( #106, #357, #24, #273 ) ) ;
#354 = CIRCLE ( 'NONE', #313, 37.49999999999999289 ) ;
#355 = CARTESIAN_POINT ( 'NONE',  ( -37.45293021980809556, -1.881846083455978258, 6.653847805894346656 ) ) ;
#356 = CARTESIAN_POINT ( 'NONE',  ( -41.22191408109431876, -1.528044402045833694, 3.014545238305936792 ) ) ;
#357 = ORIENTED_EDGE ( 'NONE', *, *, #331, .F. ) ;
#358 = CARTESIAN_POINT ( 'NONE',  ( -37.43273445638235586, -2.245962874228633499, 6.110157048300232319 ) ) ;
#359 = DIRECTION ( 'NONE',  ( -1.000000000000000000, 0.000000000000000000, 0.000000000000000000 ) ) ;
#360 = CYLINDRICAL_SURFACE ( 'NONE', #434, 2.500000000000000888 ) ;
#361 = DIRECTION ( 'NONE',  ( 1.000000000000000000, 0.000000000000000000, 0.000000000000000000 ) ) ;
#362 = CARTESIAN_POINT ( 'NONE',  ( -36.22221848584008086, -9.705714191344430475, 10.00000000000000000 ) ) ;
#363 = APPLICATION_CONTEXT ( 'automotive_design' ) ;
#364 =( NAMED_UNIT ( * ) SI_UNIT ( $, .STERADIAN. ) SOLID_ANGLE_UNIT ( ) );
#365 = DIRECTION ( 'NONE',  ( -0.000000000000000000, 0.000000000000000000, 1.000000000000000000 ) ) ;
#366 = PRESENTATION_STYLE_ASSIGNMENT (( #224 ) ) ;
#367 = ORIENTED_EDGE ( 'NONE', *, *, #229, .T. ) ;
#368 = ORIENTED_EDGE ( 'NONE', *, *, #344, .F. ) ;
#369 = AXIS2_PLACEMENT_3D ( 'NONE', #456, #254, #101 ) ;
#370 = CARTESIAN_POINT ( 'NONE',  ( -37.41766705212338451, 2.483790688773609201, 5.327891506083862971 ) ) ;
#371 = CARTESIAN_POINT ( 'NONE',  ( -41.24900809277336577, 0.3276742529720715891, 2.516217738829807704 ) ) ;
#372 = CARTESIAN_POINT ( 'NONE',  ( -37.46925830242238931, 1.524194407081150615, 3.011652896881223285 ) ) ;
#373 = UNCERTAINTY_MEASURE_WITH_UNIT (LENGTH_MEASURE( 1.000000000000000082E-05 ), #307, 'distance_accuracy_value', 'NONE');
#374 = ORIENTED_EDGE ( 'NONE', *, *, #256, .T. ) ;
#375 = CIRCLE ( 'NONE', #81, 41.25000000000000000 ) ;
#376 = DIRECTION ( 'NONE',  ( -0.000000000000000000, 0.000000000000000000, 1.000000000000000000 ) ) ;
#377 = CARTESIAN_POINT ( 'NONE',  ( -41.23537204800368272, 1.108837680587978936, 2.753372606419021373 ) ) ;
#378 = CARTESIAN_POINT ( 'NONE',  ( -4.489794735692382889E-16, -1.675614206915943023E-15, 10.00000000000000000 ) ) ;
#379 = CARTESIAN_POINT ( 'NONE',  ( -37.49889973236829377, 0.3289269695580058772, 7.483646225842393918 ) ) ;
#380 = EDGE_LOOP ( 'NONE', ( #252, #62, #211, #286, #245, #88 ) ) ;
#381 = CARTESIAN_POINT ( 'NONE',  ( -37.42490440017028419, -2.372862065173158896, 4.195998397697808358 ) ) ;
#382 = CARTESIAN_POINT ( 'NONE',  ( -41.17897505682281434, -2.419820815778630951, 5.648854485790584690 ) ) ;
#383 = EDGE_CURVE ( 'NONE', #386, #47, #40, .T. ) ;
#384 = VERTEX_POINT ( 'NONE', #326 ) ;
#385 = CARTESIAN_POINT ( 'NONE',  ( -41.20219462466192795, -1.987443496295453693, 6.525379584735974348 ) ) ;
#386 = VERTEX_POINT ( 'NONE', #72 ) ;
#387 = CARTESIAN_POINT ( 'NONE',  ( -37.49475263809108583, -0.6476956564241678205, 7.420225951175316581 ) ) ;
#388 = CARTESIAN_POINT ( 'NONE',  ( -41.25000000000000711, -0.1631444127630052032, 7.500000000000003553 ) ) ;
#389 = ORIENTED_EDGE ( 'NONE', *, *, #383, .F. ) ;
#390 = ORIENTED_EDGE ( 'NONE', *, *, #45, .F. ) ;
#391 = CARTESIAN_POINT ( 'NONE',  ( -37.43732384654732215, -2.169114959214316851, 6.253654523195322668 ) ) ;
#392 = CARTESIAN_POINT ( 'NONE',  ( -41.23194433201177844, -1.256915269222238951, 7.185449739018002546 ) ) ;
#393 = CARTESIAN_POINT ( 'NONE',  ( -37.49999999999999289, -1.092789290480037129E-23, 7.500000000000002665 ) ) ;
#394 = CARTESIAN_POINT ( 'NONE',  ( -41.19302910210023327, -2.169130455507837230, 6.253629768107299647 ) ) ;
#395 = FACE_OUTER_BOUND ( 'NONE', #230, .T. ) ;
#396 = ADVANCED_FACE ( 'NONE', ( #5 ), #182, .T. ) ;
#397 = CARTESIAN_POINT ( 'NONE',  ( -37.49890879778985919, 0.3276896560954587478, 2.516219390424237368 ) ) ;
#398 = AXIS2_PLACEMENT_3D ( 'NONE', #319, #179, #361 ) ;
#399 = AXIS2_PLACEMENT_3D ( 'NONE', #84, #117, #188 ) ;
#400 = DIRECTION ( 'NONE',  ( 1.000000000000000000, 0.000000000000000000, 0.000000000000000000 ) ) ;
#401 = FILL_AREA_STYLE_COLOUR ( '', #196 ) ;
#402 = CARTESIAN_POINT ( 'NONE',  ( -41.20215979187042876, 1.988149897548605605, 6.524399926447001619 ) ) ;
#403 = CARTESIAN_POINT ( 'NONE',  ( -36.22221848584008086, 9.705714191344428698, 0.000000000000000000 ) ) ;
#404 = CARTESIAN_POINT ( 'NONE',  ( -41.22202246215481125, 1.525028555230354188, 6.987664408345161782 ) ) ;
#405 = FACE_OUTER_BOUND ( 'NONE', #53, .T. ) ;
#406 = CARTESIAN_POINT ( 'NONE',  ( -41.18175188268673992, 2.372708658811156557, 5.804417600456115878 ) ) ;
#407 = CARTESIAN_POINT ( 'NONE',  ( -37.42496544989033680, 2.371889858279745411, 4.193369970708713090 ) ) ;
#408 = CARTESIAN_POINT ( 'NONE',  ( -36.22221848584008086, 9.705714191344428698, 10.00000000000000000 ) ) ;
#409 = CARTESIAN_POINT ( 'NONE',  ( -37.50000000000000000, -0.3303843340315437693, 2.500000000000000444 ) ) ;
#410 = ORIENTED_EDGE ( 'NONE', *, *, #242, .T. ) ;
#411 = CARTESIAN_POINT ( 'NONE',  ( -37.42185117363605684, 2.419933583268697230, 5.648575730326652611 ) ) ;
#412 = ORIENTED_EDGE ( 'NONE', *, *, #431, .F. ) ;
#413 = DIRECTION ( 'NONE',  ( -0.000000000000000000, -0.000000000000000000, -1.000000000000000000 ) ) ;
#414 = CARTESIAN_POINT ( 'NONE',  ( -41.18885823962321524, -2.245976795080656618, 6.110127415439722931 ) ) ;
#415 = EDGE_CURVE ( 'NONE', #135, #199, #89, .T. ) ;
#416 = EDGE_LOOP ( 'NONE', ( #452, #65, #71, #158, #312, #423 ) ) ;
#417 = DIRECTION ( 'NONE',  ( 0.9659258262890689783, -0.2588190451025181860, 0.000000000000000000 ) ) ;
#418 = CARTESIAN_POINT ( 'NONE',  ( -37.49999999999999289, 0.000000000000000000, 10.00000000000000000 ) ) ;
#419 = VECTOR ( 'NONE', #299, 1000.000000000000000 ) ;
#420 = EDGE_LOOP ( 'NONE', ( #349, #368, #438, #208, #162, #1 ) ) ;
#421 = CARTESIAN_POINT ( 'NONE',  ( -41.18877423149427841, -2.247513922308593148, 3.892941380758117909 ) ) ;
#422 = CIRCLE ( 'NONE', #339, 37.49999999999999289 ) ;
#423 = ORIENTED_EDGE ( 'NONE', *, *, #428, .F. ) ;
#424 = LINE ( 'NONE', #249, #114 ) ;
#425 = DIRECTION ( 'NONE',  ( -0.000000000000000000, 0.000000000000000000, 1.000000000000000000 ) ) ;
#426 = FACE_OUTER_BOUND ( 'NONE', #239, .T. ) ;
#427 = CARTESIAN_POINT ( 'NONE',  ( -41.23114899175506309, 1.254273010297454194, 7.168714160536022284 ) ) ;
#428 = EDGE_CURVE ( 'NONE', #13, #281, #314, .T. ) ;
#429 = CARTESIAN_POINT ( 'NONE',  ( 0.000000000000000000, 0.000000000000000000, 10.00000000000000000 ) ) ;
#430 = CARTESIAN_POINT ( 'NONE',  ( -41.25000000000000000, 0.000000000000000000, 10.00000000000000000 ) ) ;
#431 = EDGE_CURVE ( 'NONE', #384, #135, #237, .T. ) ;
#432 = SURFACE_STYLE_FILL_AREA ( #82 ) ;
#433 = VECTOR ( 'NONE', #300, 1000.000000000000000 ) ;
#434 = AXIS2_PLACEMENT_3D ( 'NONE', #31, #76, #219 ) ;
#435 = CARTESIAN_POINT ( 'NONE',  ( 0.000000000000000000, 0.000000000000000000, 0.000000000000000000 ) ) ;
#436 = PRESENTATION_LAYER_ASSIGNMENT (  '', '', ( #178 ) ) ;
#437 = CARTESIAN_POINT ( 'NONE',  ( -36.22221848584008086, -9.705714191344430475, 0.000000000000000000 ) ) ;
#438 = ORIENTED_EDGE ( 'NONE', *, *, #331, .T. ) ;
#439 = CARTESIAN_POINT ( 'NONE',  ( -4.489794735692382889E-16, -1.675614206915943023E-15, 0.000000000000000000 ) ) ;
#440 = CARTESIAN_POINT ( 'NONE',  ( -41.21703577815105746, 1.652808629248086358, 3.117232384766536857 ) ) ;
#441 = FACE_OUTER_BOUND ( 'NONE', #380, .T. ) ;
#442 = CARTESIAN_POINT ( 'NONE',  ( -41.24240142101901085, 0.8060731770169760058, 2.627848723041899870 ) ) ;
#443 = EDGE_CURVE ( 'NONE', #169, #13, #160, .T. ) ;
#444 = CARTESIAN_POINT ( 'NONE',  ( -37.44744102947550601, 1.986840652338976332, 3.473733554180560290 ) ) ;
#445 = CARTESIAN_POINT ( 'NONE',  ( -39.84444033442409250, 10.67628561047887281, 0.000000000000000000 ) ) ;
#446 = CARTESIAN_POINT ( 'NONE',  ( -37.48388133075626882, -1.109620034160083701, 2.753837247340476413 ) ) ;
#447 = CARTESIAN_POINT ( 'NONE',  ( -37.41657778140872637, 2.499941425557470787, 4.835995486974347557 ) ) ;
#448 = ORIENTED_EDGE ( 'NONE', *, *, #102, .F. ) ;
#449 = ORIENTED_EDGE ( 'NONE', *, *, #144, .F. ) ;
#450 = CARTESIAN_POINT ( 'NONE',  ( -41.24241887836342357, 0.8051962747860108571, 7.372454151967510860 ) ) ;
#451 = AXIS2_PLACEMENT_3D ( 'NONE', #288, #110, #359 ) ;
#452 = ORIENTED_EDGE ( 'NONE', *, *, #42, .T. ) ;
#453 = DIRECTION ( 'NONE',  ( -0.000000000000000000, -0.000000000000000000, -1.000000000000000000 ) ) ;
#454 = VERTEX_POINT ( 'NONE', #283 ) ;
#455 = DIRECTION ( 'NONE',  ( -0.9659258262890689783, -0.2588190451025181860, 0.000000000000000000 ) ) ;
#456 = CARTESIAN_POINT ( 'NONE',  ( 0.000000000000000000, 0.000000000000000000, 10.00000000000000000 ) ) ;
#457 = AXIS2_PLACEMENT_3D ( 'NONE', #54, #345, #22 ) ;
ENDSEC;
END-ISO-10303-21;
