ISO-10303-21;
HEADER;
/* Generated by software containing ST-Developer
 * from STEP Tools, Inc. (www.steptools.com) 
 */
/* OPTION: using custom renumber hook */

FILE_DESCRIPTION(
/* description */ ('STEP AP242',
'CAx-IF Rec.Pracs.---Representation and Presentation of Product Manufa
cturing Information (PMI)---4.0---2014-10-13',
'CAx-IF Rec.Pracs.---3D Tessellated Geometry---0.4---2014-09-14','2;1'),

/* implementation_level */ '2;1');

FILE_NAME(
/* name */ '622cb38e5f547602d73bd167',
/* time_stamp */ '2022-03-12T14:51:59+00:00',
/* author */ (''),
/* organization */ (''),
/* preprocessor_version */ 'ST-DEVELOPER v18.101',
/* originating_system */ '  ',
/* authorisation */ '  ');

FILE_SCHEMA (('AP242_MANAGED_MODEL_BASED_3D_ENGINEERING_MIM_LF { 1 0 10303 442 1 1 4 }'));
ENDSEC;

DATA;
#10=SHAPE_REPRESENTATION_RELATIONSHIP('','',#214,#11);
#11=ADVANCED_BREP_SHAPE_REPRESENTATION('',(#212),#364);
#12=TOROIDAL_SURFACE('',#233,0.00385,0.00015);
#13=TOROIDAL_SURFACE('',#234,0.00215,0.00015);
#14=TOROIDAL_SURFACE('',#246,0.00385,0.00015);
#15=TOROIDAL_SURFACE('',#247,0.00215,0.00015);
#16=OVER_RIDING_STYLED_ITEM('',(#193),#177,#191);
#17=OVER_RIDING_STYLED_ITEM('',(#194),#185,#191);
#18=PLANE('',#219);
#19=PLANE('',#224);
#20=PLANE('',#228);
#21=PLANE('',#235);
#22=PLANE('',#240);
#23=PLANE('',#244);
#24=ORIENTED_EDGE('',*,*,#56,.T.);
#25=ORIENTED_EDGE('',*,*,#57,.F.);
#26=ORIENTED_EDGE('',*,*,#58,.T.);
#27=ORIENTED_EDGE('',*,*,#59,.F.);
#28=ORIENTED_EDGE('',*,*,#60,.F.);
#29=ORIENTED_EDGE('',*,*,#59,.T.);
#30=ORIENTED_EDGE('',*,*,#61,.F.);
#31=ORIENTED_EDGE('',*,*,#60,.T.);
#32=ORIENTED_EDGE('',*,*,#62,.F.);
#33=ORIENTED_EDGE('',*,*,#61,.T.);
#34=ORIENTED_EDGE('',*,*,#63,.T.);
#35=ORIENTED_EDGE('',*,*,#62,.T.);
#36=ORIENTED_EDGE('',*,*,#64,.T.);
#37=ORIENTED_EDGE('',*,*,#65,.F.);
#38=ORIENTED_EDGE('',*,*,#63,.F.);
#39=ORIENTED_EDGE('',*,*,#64,.F.);
#40=ORIENTED_EDGE('',*,*,#56,.F.);
#41=ORIENTED_EDGE('',*,*,#58,.F.);
#42=ORIENTED_EDGE('',*,*,#66,.F.);
#43=ORIENTED_EDGE('',*,*,#67,.T.);
#44=ORIENTED_EDGE('',*,*,#68,.T.);
#45=ORIENTED_EDGE('',*,*,#67,.F.);
#46=ORIENTED_EDGE('',*,*,#69,.T.);
#47=ORIENTED_EDGE('',*,*,#68,.F.);
#48=ORIENTED_EDGE('',*,*,#70,.T.);
#49=ORIENTED_EDGE('',*,*,#69,.F.);
#50=ORIENTED_EDGE('',*,*,#71,.F.);
#51=ORIENTED_EDGE('',*,*,#70,.F.);
#52=ORIENTED_EDGE('',*,*,#71,.T.);
#53=ORIENTED_EDGE('',*,*,#65,.T.);
#54=ORIENTED_EDGE('',*,*,#57,.T.);
#55=ORIENTED_EDGE('',*,*,#66,.T.);
#56=EDGE_CURVE('',#72,#72,#88,.F.);
#57=EDGE_CURVE('',#73,#73,#89,.F.);
#58=EDGE_CURVE('',#74,#74,#90,.T.);
#59=EDGE_CURVE('',#75,#75,#91,.T.);
#60=EDGE_CURVE('',#76,#76,#92,.T.);
#61=EDGE_CURVE('',#77,#77,#93,.T.);
#62=EDGE_CURVE('',#78,#78,#94,.T.);
#63=EDGE_CURVE('',#79,#79,#95,.F.);
#64=EDGE_CURVE('',#80,#80,#96,.T.);
#65=EDGE_CURVE('',#81,#81,#97,.T.);
#66=EDGE_CURVE('',#82,#82,#98,.T.);
#67=EDGE_CURVE('',#83,#83,#99,.T.);
#68=EDGE_CURVE('',#84,#84,#100,.T.);
#69=EDGE_CURVE('',#85,#85,#101,.T.);
#70=EDGE_CURVE('',#86,#86,#102,.T.);
#71=EDGE_CURVE('',#87,#87,#103,.F.);
#72=VERTEX_POINT('',#317);
#73=VERTEX_POINT('',#319);
#74=VERTEX_POINT('',#322);
#75=VERTEX_POINT('',#324);
#76=VERTEX_POINT('',#327);
#77=VERTEX_POINT('',#330);
#78=VERTEX_POINT('',#333);
#79=VERTEX_POINT('',#336);
#80=VERTEX_POINT('',#339);
#81=VERTEX_POINT('',#341);
#82=VERTEX_POINT('',#346);
#83=VERTEX_POINT('',#348);
#84=VERTEX_POINT('',#351);
#85=VERTEX_POINT('',#354);
#86=VERTEX_POINT('',#357);
#87=VERTEX_POINT('',#360);
#88=CIRCLE('',#217,0.002);
#89=CIRCLE('',#218,0.002);
#90=CIRCLE('',#220,0.00215);
#91=CIRCLE('',#221,0.0025);
#92=CIRCLE('',#223,0.0025);
#93=CIRCLE('',#225,0.0037);
#94=CIRCLE('',#227,0.0037);
#95=CIRCLE('',#229,0.00385);
#96=CIRCLE('',#231,0.004);
#97=CIRCLE('',#232,0.004);
#98=CIRCLE('',#236,0.00215);
#99=CIRCLE('',#237,0.0025);
#100=CIRCLE('',#239,0.0025);
#101=CIRCLE('',#241,0.0037);
#102=CIRCLE('',#243,0.0037);
#103=CIRCLE('',#245,0.00385);
#104=EDGE_LOOP('',(#24));
#105=EDGE_LOOP('',(#25));
#106=EDGE_LOOP('',(#26));
#107=EDGE_LOOP('',(#27));
#108=EDGE_LOOP('',(#28));
#109=EDGE_LOOP('',(#29));
#110=EDGE_LOOP('',(#30));
#111=EDGE_LOOP('',(#31));
#112=EDGE_LOOP('',(#32));
#113=EDGE_LOOP('',(#33));
#114=EDGE_LOOP('',(#34));
#115=EDGE_LOOP('',(#35));
#116=EDGE_LOOP('',(#36));
#117=EDGE_LOOP('',(#37));
#118=EDGE_LOOP('',(#38));
#119=EDGE_LOOP('',(#39));
#120=EDGE_LOOP('',(#40));
#121=EDGE_LOOP('',(#41));
#122=EDGE_LOOP('',(#42));
#123=EDGE_LOOP('',(#43));
#124=EDGE_LOOP('',(#44));
#125=EDGE_LOOP('',(#45));
#126=EDGE_LOOP('',(#46));
#127=EDGE_LOOP('',(#47));
#128=EDGE_LOOP('',(#48));
#129=EDGE_LOOP('',(#49));
#130=EDGE_LOOP('',(#50));
#131=EDGE_LOOP('',(#51));
#132=EDGE_LOOP('',(#52));
#133=EDGE_LOOP('',(#53));
#134=EDGE_LOOP('',(#54));
#135=EDGE_LOOP('',(#55));
#136=FACE_BOUND('',#104,.T.);
#137=FACE_BOUND('',#105,.T.);
#138=FACE_BOUND('',#106,.T.);
#139=FACE_BOUND('',#107,.T.);
#140=FACE_BOUND('',#108,.T.);
#141=FACE_BOUND('',#109,.T.);
#142=FACE_BOUND('',#110,.T.);
#143=FACE_BOUND('',#111,.T.);
#144=FACE_BOUND('',#112,.T.);
#145=FACE_BOUND('',#113,.T.);
#146=FACE_BOUND('',#114,.T.);
#147=FACE_BOUND('',#115,.T.);
#148=FACE_BOUND('',#116,.T.);
#149=FACE_BOUND('',#117,.T.);
#150=FACE_BOUND('',#118,.T.);
#151=FACE_BOUND('',#119,.T.);
#152=FACE_BOUND('',#120,.T.);
#153=FACE_BOUND('',#121,.T.);
#154=FACE_BOUND('',#122,.T.);
#155=FACE_BOUND('',#123,.T.);
#156=FACE_BOUND('',#124,.T.);
#157=FACE_BOUND('',#125,.T.);
#158=FACE_BOUND('',#126,.T.);
#159=FACE_BOUND('',#127,.T.);
#160=FACE_BOUND('',#128,.T.);
#161=FACE_BOUND('',#129,.T.);
#162=FACE_BOUND('',#130,.T.);
#163=FACE_BOUND('',#131,.T.);
#164=FACE_BOUND('',#132,.T.);
#165=FACE_BOUND('',#133,.T.);
#166=FACE_BOUND('',#134,.T.);
#167=FACE_BOUND('',#135,.T.);
#168=CYLINDRICAL_SURFACE('',#216,0.002);
#169=CYLINDRICAL_SURFACE('',#222,0.0025);
#170=CYLINDRICAL_SURFACE('',#226,0.0037);
#171=CYLINDRICAL_SURFACE('',#230,0.004);
#172=CYLINDRICAL_SURFACE('',#238,0.0025);
#173=CYLINDRICAL_SURFACE('',#242,0.0037);
#174=ADVANCED_FACE('',(#136,#137),#168,.F.);
#175=ADVANCED_FACE('',(#138,#139),#18,.F.);
#176=ADVANCED_FACE('',(#140,#141),#169,.T.);
#177=ADVANCED_FACE('',(#142,#143),#19,.F.);
#178=ADVANCED_FACE('',(#144,#145),#170,.F.);
#179=ADVANCED_FACE('',(#146,#147),#20,.F.);
#180=ADVANCED_FACE('',(#148,#149),#171,.T.);
#181=ADVANCED_FACE('',(#150,#151),#12,.T.);
#182=ADVANCED_FACE('',(#152,#153),#13,.T.);
#183=ADVANCED_FACE('',(#154,#155),#21,.F.);
#184=ADVANCED_FACE('',(#156,#157),#172,.T.);
#185=ADVANCED_FACE('',(#158,#159),#22,.F.);
#186=ADVANCED_FACE('',(#160,#161),#173,.F.);
#187=ADVANCED_FACE('',(#162,#163),#23,.F.);
#188=ADVANCED_FACE('',(#164,#165),#14,.T.);
#189=ADVANCED_FACE('',(#166,#167),#15,.T.);
#190=CLOSED_SHELL('',(#174,#175,#176,#177,#178,#179,#180,#181,#182,#183,
#184,#185,#186,#187,#188,#189));
#191=STYLED_ITEM('',(#192),#212);
#192=PRESENTATION_STYLE_ASSIGNMENT((#195));
#193=PRESENTATION_STYLE_ASSIGNMENT((#196));
#194=PRESENTATION_STYLE_ASSIGNMENT((#197));
#195=SURFACE_STYLE_USAGE(.BOTH.,#198);
#196=SURFACE_STYLE_USAGE(.BOTH.,#199);
#197=SURFACE_STYLE_USAGE(.BOTH.,#200);
#198=SURFACE_SIDE_STYLE('',(#201));
#199=SURFACE_SIDE_STYLE('',(#202));
#200=SURFACE_SIDE_STYLE('',(#203));
#201=SURFACE_STYLE_FILL_AREA(#204);
#202=SURFACE_STYLE_FILL_AREA(#205);
#203=SURFACE_STYLE_FILL_AREA(#206);
#204=FILL_AREA_STYLE('',(#207));
#205=FILL_AREA_STYLE('',(#208));
#206=FILL_AREA_STYLE('',(#209));
#207=FILL_AREA_STYLE_COLOUR('',#210);
#208=FILL_AREA_STYLE_COLOUR('',#211);
#209=FILL_AREA_STYLE_COLOUR('',#211);
#210=COLOUR_RGB('',0.917647058823529,0.917647058823529,0.917647058823529);
#211=COLOUR_RGB('',0.941176470588235,0.874509803921569,0.67843137254902);
#212=MANIFOLD_SOLID_BREP('MR84-2Z - Deep groove ball bearing',#190);
#213=SHAPE_DEFINITION_REPRESENTATION(#369,#214);
#214=SHAPE_REPRESENTATION('MR84-2Z - Deep groove ball bearing',(#215),#364);
#215=AXIS2_PLACEMENT_3D('',#314,#248,#249);
#216=AXIS2_PLACEMENT_3D('',#315,#250,#251);
#217=AXIS2_PLACEMENT_3D('',#316,#252,#253);
#218=AXIS2_PLACEMENT_3D('',#318,#254,#255);
#219=AXIS2_PLACEMENT_3D('',#320,#256,#257);
#220=AXIS2_PLACEMENT_3D('',#321,#258,#259);
#221=AXIS2_PLACEMENT_3D('',#323,#260,#261);
#222=AXIS2_PLACEMENT_3D('',#325,#262,#263);
#223=AXIS2_PLACEMENT_3D('',#326,#264,#265);
#224=AXIS2_PLACEMENT_3D('',#328,#266,#267);
#225=AXIS2_PLACEMENT_3D('',#329,#268,#269);
#226=AXIS2_PLACEMENT_3D('',#331,#270,#271);
#227=AXIS2_PLACEMENT_3D('',#332,#272,#273);
#228=AXIS2_PLACEMENT_3D('',#334,#274,#275);
#229=AXIS2_PLACEMENT_3D('',#335,#276,#277);
#230=AXIS2_PLACEMENT_3D('',#337,#278,#279);
#231=AXIS2_PLACEMENT_3D('',#338,#280,#281);
#232=AXIS2_PLACEMENT_3D('',#340,#282,#283);
#233=AXIS2_PLACEMENT_3D('',#342,#284,#285);
#234=AXIS2_PLACEMENT_3D('',#343,#286,#287);
#235=AXIS2_PLACEMENT_3D('',#344,#288,#289);
#236=AXIS2_PLACEMENT_3D('',#345,#290,#291);
#237=AXIS2_PLACEMENT_3D('',#347,#292,#293);
#238=AXIS2_PLACEMENT_3D('',#349,#294,#295);
#239=AXIS2_PLACEMENT_3D('',#350,#296,#297);
#240=AXIS2_PLACEMENT_3D('',#352,#298,#299);
#241=AXIS2_PLACEMENT_3D('',#353,#300,#301);
#242=AXIS2_PLACEMENT_3D('',#355,#302,#303);
#243=AXIS2_PLACEMENT_3D('',#356,#304,#305);
#244=AXIS2_PLACEMENT_3D('',#358,#306,#307);
#245=AXIS2_PLACEMENT_3D('',#359,#308,#309);
#246=AXIS2_PLACEMENT_3D('',#361,#310,#311);
#247=AXIS2_PLACEMENT_3D('',#362,#312,#313);
#248=DIRECTION('',(0.,0.,1.));
#249=DIRECTION('',(1.,0.,0.));
#250=DIRECTION('',(-1.,0.,0.));
#251=DIRECTION('',(0.,0.,1.));
#252=DIRECTION('',(-1.,0.,0.));
#253=DIRECTION('',(0.,0.,1.));
#254=DIRECTION('',(-1.,0.,0.));
#255=DIRECTION('',(0.,0.,1.));
#256=DIRECTION('',(-1.,0.,0.));
#257=DIRECTION('',(0.,0.,1.));
#258=DIRECTION('',(-1.,0.,0.));
#259=DIRECTION('',(0.,0.,1.));
#260=DIRECTION('',(-1.,0.,0.));
#261=DIRECTION('',(0.,0.,1.));
#262=DIRECTION('',(-1.,0.,0.));
#263=DIRECTION('',(0.,0.,1.));
#264=DIRECTION('',(-1.,0.,0.));
#265=DIRECTION('',(0.,0.,1.));
#266=DIRECTION('',(-1.,0.,0.));
#267=DIRECTION('',(0.,0.,1.));
#268=DIRECTION('',(-1.,0.,0.));
#269=DIRECTION('',(0.,0.,1.));
#270=DIRECTION('',(-1.,0.,0.));
#271=DIRECTION('',(0.,0.,1.));
#272=DIRECTION('',(-1.,0.,0.));
#273=DIRECTION('',(0.,0.,1.));
#274=DIRECTION('',(-1.,0.,0.));
#275=DIRECTION('',(0.,0.,1.));
#276=DIRECTION('',(-1.,0.,0.));
#277=DIRECTION('',(0.,0.,1.));
#278=DIRECTION('',(-1.,0.,0.));
#279=DIRECTION('',(0.,0.,1.));
#280=DIRECTION('',(-1.,0.,0.));
#281=DIRECTION('',(0.,0.,1.));
#282=DIRECTION('',(-1.,0.,0.));
#283=DIRECTION('',(0.,0.,1.));
#284=DIRECTION('',(-1.,0.,0.));
#285=DIRECTION('',(0.,0.,1.));
#286=DIRECTION('',(-1.,0.,0.));
#287=DIRECTION('',(0.,0.,1.));
#288=DIRECTION('',(1.,0.,0.));
#289=DIRECTION('',(0.,0.,1.));
#290=DIRECTION('',(-1.,0.,0.));
#291=DIRECTION('',(0.,0.,1.));
#292=DIRECTION('',(-1.,0.,0.));
#293=DIRECTION('',(0.,0.,1.));
#294=DIRECTION('',(1.,0.,0.));
#295=DIRECTION('',(0.,0.,1.));
#296=DIRECTION('',(-1.,0.,0.));
#297=DIRECTION('',(0.,0.,1.));
#298=DIRECTION('',(1.,0.,0.));
#299=DIRECTION('',(0.,0.,1.));
#300=DIRECTION('',(-1.,0.,0.));
#301=DIRECTION('',(0.,0.,1.));
#302=DIRECTION('',(1.,0.,0.));
#303=DIRECTION('',(0.,0.,1.));
#304=DIRECTION('',(-1.,0.,0.));
#305=DIRECTION('',(0.,0.,1.));
#306=DIRECTION('',(1.,0.,0.));
#307=DIRECTION('',(0.,0.,1.));
#308=DIRECTION('',(-1.,0.,0.));
#309=DIRECTION('',(0.,0.,1.));
#310=DIRECTION('',(1.,0.,0.));
#311=DIRECTION('',(0.,0.,1.));
#312=DIRECTION('',(1.,0.,0.));
#313=DIRECTION('',(0.,0.,1.));
#314=CARTESIAN_POINT('',(0.,0.,0.));
#315=CARTESIAN_POINT('',(0.00075,0.,0.));
#316=CARTESIAN_POINT('',(0.00135,0.,0.));
#317=CARTESIAN_POINT('',(0.00135,0.,0.002));
#318=CARTESIAN_POINT('',(-0.00135,0.,0.));
#319=CARTESIAN_POINT('',(-0.00135,0.,0.002));
#320=CARTESIAN_POINT('',(0.0015,0.,0.00225));
#321=CARTESIAN_POINT('',(0.0015,0.,0.));
#322=CARTESIAN_POINT('',(0.0015,0.,0.00215));
#323=CARTESIAN_POINT('',(0.0015,0.,0.));
#324=CARTESIAN_POINT('',(0.0015,0.,0.0025));
#325=CARTESIAN_POINT('',(0.00075,0.,0.));
#326=CARTESIAN_POINT('',(0.0014,0.,0.));
#327=CARTESIAN_POINT('',(0.0014,0.,0.0025));
#328=CARTESIAN_POINT('',(0.0014,0.,0.0031));
#329=CARTESIAN_POINT('',(0.0014,0.,0.));
#330=CARTESIAN_POINT('',(0.0014,0.,0.0037));
#331=CARTESIAN_POINT('',(0.00075,0.,0.));
#332=CARTESIAN_POINT('',(0.0015,0.,0.));
#333=CARTESIAN_POINT('',(0.0015,0.,0.0037));
#334=CARTESIAN_POINT('',(0.0015,0.,0.00385));
#335=CARTESIAN_POINT('',(0.0015,0.,0.));
#336=CARTESIAN_POINT('',(0.0015,0.,0.00385));
#337=CARTESIAN_POINT('',(0.00075,0.,0.));
#338=CARTESIAN_POINT('',(0.00135,0.,0.));
#339=CARTESIAN_POINT('',(0.00135,0.,0.004));
#340=CARTESIAN_POINT('',(-0.00135,0.,0.));
#341=CARTESIAN_POINT('',(-0.00135,0.,0.004));
#342=CARTESIAN_POINT('',(0.00135,0.,0.));
#343=CARTESIAN_POINT('',(0.00135,0.,0.));
#344=CARTESIAN_POINT('',(-0.0015,0.,0.00225));
#345=CARTESIAN_POINT('',(-0.0015,0.,0.));
#346=CARTESIAN_POINT('',(-0.0015,0.,0.00215));
#347=CARTESIAN_POINT('',(-0.0015,0.,0.));
#348=CARTESIAN_POINT('',(-0.0015,0.,0.0025));
#349=CARTESIAN_POINT('',(-0.00075,0.,0.));
#350=CARTESIAN_POINT('',(-0.0014,0.,0.));
#351=CARTESIAN_POINT('',(-0.0014,0.,0.0025));
#352=CARTESIAN_POINT('',(-0.0014,0.,0.0031));
#353=CARTESIAN_POINT('',(-0.0014,0.,0.));
#354=CARTESIAN_POINT('',(-0.0014,0.,0.0037));
#355=CARTESIAN_POINT('',(-0.00075,0.,0.));
#356=CARTESIAN_POINT('',(-0.0015,0.,0.));
#357=CARTESIAN_POINT('',(-0.0015,0.,0.0037));
#358=CARTESIAN_POINT('',(-0.0015,0.,0.00385));
#359=CARTESIAN_POINT('',(-0.0015,0.,0.));
#360=CARTESIAN_POINT('',(-0.0015,0.,0.00385));
#361=CARTESIAN_POINT('',(-0.00135,0.,0.));
#362=CARTESIAN_POINT('',(-0.00135,0.,0.));
#363=MECHANICAL_DESIGN_GEOMETRIC_PRESENTATION_REPRESENTATION('',(#191,#16,
#17),#364);
#364=(
GEOMETRIC_REPRESENTATION_CONTEXT(3)
GLOBAL_UNCERTAINTY_ASSIGNED_CONTEXT((#365))
GLOBAL_UNIT_ASSIGNED_CONTEXT((#368,#367,#366))
REPRESENTATION_CONTEXT('MR84-2Z - Deep groove ball bearing',
'TOP_LEVEL_ASSEMBLY_PART')
);
#365=UNCERTAINTY_MEASURE_WITH_UNIT(LENGTH_MEASURE(5.E-6),#368,
'DISTANCE_ACCURACY_VALUE','Maximum Tolerance applied to model');
#366=(
NAMED_UNIT(*)
SI_UNIT($,.STERADIAN.)
SOLID_ANGLE_UNIT()
);
#367=(
NAMED_UNIT(*)
PLANE_ANGLE_UNIT()
SI_UNIT($,.RADIAN.)
);
#368=(
LENGTH_UNIT()
NAMED_UNIT(*)
SI_UNIT($,.METRE.)
);
#369=PRODUCT_DEFINITION_SHAPE('','',#370);
#370=PRODUCT_DEFINITION('','',#372,#371);
#371=PRODUCT_DEFINITION_CONTEXT('',#378,'design');
#372=PRODUCT_DEFINITION_FORMATION_WITH_SPECIFIED_SOURCE('','',#374,
 .NOT_KNOWN.);
#373=PRODUCT_RELATED_PRODUCT_CATEGORY('','',(#374));
#374=PRODUCT('MR84-2Z - Deep groove ball bearing',
'MR84-2Z - Deep groove ball bearing',
'MR84-2Z - Deep groove ball bearing',(#376));
#375=PRODUCT_CATEGORY('','');
#376=PRODUCT_CONTEXT('',#378,'mechanical');
#377=APPLICATION_PROTOCOL_DEFINITION('international standard',
'ap242_managed_model_based_3d_engineering',2011,#378);
#378=APPLICATION_CONTEXT('managed model based 3d engineering');
ENDSEC;
END-ISO-10303-21;
